<?xml version="1.0" encoding="utf-8"?>
<!-- Generator: Adobe Illustrator 15.1.0, SVG Export Plug-In . SVG Version: 6.00 Build 0)  -->
<!DOCTYPE svg PUBLIC "-//W3C//DTD SVG 1.1//EN" "http://www.w3.org/Graphics/SVG/1.1/DTD/svg11.dtd">
<svg version="1.1" id="Layer_1" xmlns="http://www.w3.org/2000/svg" xmlns:xlink="http://www.w3.org/1999/xlink" x="0px" y="0px"
	 width="100px" height="52px" viewBox="0 0 100 52" enable-background="new 0 0 100 52" xml:space="preserve">
<path fill="#FFFFFF" d="M74.458,0.955H59.32c-1.307,0-2.59,0.1-3.844,0.293c-0.273,0.042-0.541,0.101-0.812,0.151
	c4.646,2.666,8.469,6.605,10.986,11.343h1.238h8.346c7.322,0,13.258,5.937,13.258,13.259c0,7.321-5.938,13.258-13.258,13.258h-9.516
	H63.76h-1.904H61.85h-3.17c-3.305,0-6.324-1.212-8.646-3.212l-0.003,0.003c0-0.002-0.001-0.002-0.002-0.003
	c-0.494-0.414-0.886-0.802-1.206-1.148c-0.7-0.764-1.011-1.303-1.011-1.303c0.001-0.002,0.002-0.002,0.002-0.003
	c-0.001-0.001-0.002-0.002-0.002-0.003c-1.505-2.15-2.389-4.766-2.389-7.589c0-2.746,0.834-5.296,2.263-7.413
	c0.041-0.06,0.086-0.117,0.127-0.176c-1.736-1.473-3.978-2.367-6.429-2.367h-5.041c-1.325,3.052-2.067,6.416-2.067,9.956
	c0,3.538,0.737,6.903,2.061,9.955c0.244,0.562,0.509,1.11,0.792,1.651c0.237,0.449,0.482,0.896,0.746,1.332
	c0.02,0.033,0.036,0.059,0.054,0.088c0.047,0.078,0.099,0.152,0.147,0.229c2.792,4.464,6.948,7.979,11.888,9.974
	c0.608,0.246,1.226,0.473,1.856,0.67c0.033,0.011,0.068,0.021,0.103,0.031c0.104,0.032,0.212,0.061,0.318,0.09
	c0.27,0.08,0.541,0.162,0.815,0.231c0.004,0,0.006,0.002,0.01,0.003c2,0.514,4.096,0.787,6.254,0.787h15.137
	c13.832,0,25.044-11.213,25.044-25.044C99.502,12.169,88.29,0.955,74.458,0.955z"/>
<path fill="#FFFFFF" d="M25.542,51.045h15.137c1.308,0,2.592-0.102,3.846-0.294c0.273-0.042,0.542-0.101,0.811-0.151
	c-4.646-2.664-8.47-6.604-10.987-11.342H33.11h-8.346c-7.322,0-13.257-5.936-13.257-13.259c0-7.322,5.935-13.257,13.257-13.257
	h9.516h1.957h1.905h0.007h3.17c3.304,0,6.323,1.212,8.645,3.212l0.002-0.003c0.001,0.001,0.001,0.002,0.002,0.003
	c0.495,0.413,0.888,0.801,1.206,1.148c0.701,0.762,1.012,1.302,1.012,1.302c0,0.001-0.002,0.002-0.002,0.003
	c0,0,0.002,0.001,0.002,0.003c1.506,2.15,2.392,4.766,2.392,7.588c0,2.746-0.835,5.297-2.265,7.412
	c-0.041,0.062-0.086,0.117-0.127,0.176c1.735,1.475,3.979,2.369,6.43,2.369h5.042c1.323-3.053,2.063-6.417,2.063-9.957
	c0-3.539-0.736-6.903-2.061-9.955c-0.244-0.561-0.51-1.111-0.792-1.651c-0.237-0.451-0.482-0.898-0.746-1.332
	c-0.021-0.033-0.036-0.06-0.054-0.089c-0.047-0.078-0.098-0.153-0.146-0.23C59.13,8.278,54.973,4.76,50.034,2.768
	c-0.608-0.245-1.226-0.471-1.856-0.67c-0.034-0.011-0.068-0.021-0.103-0.032c-0.105-0.032-0.212-0.059-0.318-0.089
	c-0.27-0.081-0.541-0.162-0.816-0.232c-0.004-0.001-0.006-0.001-0.009-0.002c-2-0.515-4.095-0.788-6.255-0.788H25.542
	c-13.832,0-25.044,11.212-25.044,25.044C0.498,39.832,11.71,51.045,25.542,51.045z"/>
</svg>
