<?xml version="1.0" standalone="no"?>
<!DOCTYPE svg PUBLIC "-//W3C//DTD SVG 1.1//EN" "http://www.w3.org/Graphics/SVG/1.1/DTD/svg11.dtd" >
<svg xmlns="http://www.w3.org/2000/svg">
<metadata>
This is a custom SVG webfont generated by Font Squirrel.
Copyright   : Copyright c Mrten Nettelbladt 2006 All rights reserved
Designer    : Mrten Nettelbladt
Foundry     : Mrten Nettelbladt
Foundry URL : httpmartennettelbladtsemiso
</metadata>
<defs>
<font id="MisoRegular" horiz-adv-x="851" >
<font-face units-per-em="2048" ascent="1638" descent="-410" />
<missing-glyph horiz-adv-x="393" />
<glyph unicode=" "  horiz-adv-x="393" />
<glyph unicode="&#x09;" horiz-adv-x="393" />
<glyph unicode="&#xa0;" horiz-adv-x="393" />
<glyph unicode="!" horiz-adv-x="409" d="M119 78q0 35 25.5 60.5t60.5 25.5t60.5 -25.5t25.5 -60.5t-25.5 -60.5t-60.5 -25.5t-60.5 25.5t-25.5 60.5zM139 385v819q0 29 19.5 47.5t46.5 18.5q29 0 47 -18.5t18 -47.5v-819q0 -29 -18.5 -47.5t-46.5 -18.5q-27 0 -46.5 18.5t-19.5 47.5z" />
<glyph unicode="&#x22;" horiz-adv-x="720" d="M131 1040v205q0 29 18.5 47.5t47.5 18.5t47 -18.5t18 -47.5v-205q0 -29 -18.5 -47t-46.5 -18q-29 0 -47.5 18t-18.5 47zM459 1040v205q0 29 18.5 47.5t46.5 18.5q29 0 47.5 -18.5t18.5 -47.5v-205q0 -29 -18.5 -47t-47.5 -18t-47 18t-18 47z" />
<glyph unicode="#" horiz-adv-x="937" d="M39 508q0 27 17.5 44t43.5 17h144v203h-144q-27 0 -44 18.5t-17 45.5t17.5 44t43.5 17h144v348q0 27 17.5 44.5t43.5 17.5q27 0 45.5 -17.5t18.5 -44.5v-348h202v348q0 27 17.5 44.5t44.5 17.5t45 -17.5t18 -44.5v-348h142q27 0 45 -17.5t18 -43.5q0 -27 -18.5 -45.5 t-44.5 -18.5h-142v-203h142q27 0 45 -17t18 -44t-18.5 -45.5t-44.5 -18.5h-142v-387q0 -27 -18.5 -45t-44.5 -18q-27 0 -44.5 18.5t-17.5 44.5v387h-202v-387q0 -27 -18.5 -45t-45.5 -18t-44 18.5t-17 44.5v387h-144q-27 0 -44 18.5t-17 45.5zM369 569h202v203h-202v-203z " />
<glyph unicode="$" d="M145.5 272.5q8.5 26.5 30.5 40.5q23 12 49.5 5t40.5 -29q39 -70 117 -82q6 -2 13 -2h14h2q61 0 108 41q59 49 60 129q-2 37 -18.5 70.5t-45.5 56.5l-256 211q-51 41 -78.5 98t-27.5 123q-2 66 24.5 125t77.5 100q51 45 123 62v106q0 29 18.5 47.5t46.5 18.5 q27 0 46.5 -18.5t19.5 -47.5v-106q59 -14 107.5 -49t78.5 -89q12 -23 5 -49t-29 -41q-23 -14 -49.5 -6t-40.5 31q-35 66 -111 78q-6 2 -13 2h-14h-2q-57 0 -102 -39q-59 -49 -55 -123q0 -76 57 -121l258 -211q53 -41 81 -101.5t30 -127.5q0 -66 -28 -126.5t-79 -103.5 q-29 -25 -60.5 -40t-66.5 -25v-105q0 -29 -19.5 -47t-45.5 -18q-29 0 -47.5 18.5t-18.5 46.5v107q-61 12 -111.5 49t-82.5 92q-15 23 -6.5 49.5z" />
<glyph unicode="%" horiz-adv-x="1214" d="M78 1061q0 49 19.5 94t52 78t76.5 52.5t96 19.5q49 0 94 -19.5t77.5 -52.5t52 -78t19.5 -94q0 -51 -19.5 -95t-52 -77t-77.5 -52.5t-94 -19.5q-51 0 -95.5 19.5t-77 52.5t-52 77t-19.5 95zM197 1061q0 -53 35.5 -89t89.5 -36q53 0 88.5 36t35.5 89t-35.5 89t-88.5 36 t-89 -36t-36 -89zM259 35.5q-9 25.5 3 50.5l574 1188q12 25 37.5 33t50.5 -2q25 -12 33 -38t-3 -50l-573 -1188q-12 -25 -38 -34t-50 3q-25 12 -34 37.5zM651 242q0 49 19.5 94t52.5 77.5t77 52t95 19.5q49 0 94 -19.5t78 -52t52.5 -77.5t19.5 -94q0 -51 -19.5 -95.5 t-52.5 -77t-78 -52t-94 -19.5q-51 0 -95 19.5t-77 52t-52.5 77t-19.5 95.5zM770 242q0 -53 36 -89t89 -36t89 35.5t36 89.5q0 53 -36 89t-89 36t-89 -36t-36 -89z" />
<glyph unicode="&#x26;" horiz-adv-x="1009" d="M102 254q-10 66 5.5 126t56.5 114l164 213l-140 180l-2 2v2h-2v2q-41 63 -44 138t34 140q37 68 102.5 106t143.5 34t140.5 -45t94.5 -111q33 -70 25 -144.5t-55 -136.5l-131 -167l155 -203l51 -68l64 105q14 25 40.5 31t49.5 -9q23 -14 30 -39.5t-7 -50.5l-91 -147 l162 -207q16 -23 13 -49.5t-25 -42.5q-23 -16 -49.5 -14.5t-42.5 24.5l-129 168l-37 -62q-35 -57 -86 -93t-115 -52q-63 -14 -125.5 -1t-115.5 48q-111 76 -134 209zM233 274q4 -37 25 -67.5t51 -52.5q61 -43 140 -27q74 16 116 84l64 104l-84 109l-133 174l-144 -184 q-47 -64 -35 -140zM271 1035q1 -38 22 -70l119 -152l108 141q25 33 29 72t-12 74t-49 56.5t-72 23.5q-41 2 -74 -17.5t-53 -54.5q-19 -35 -18 -73z" />
<glyph unicode="'" horiz-adv-x="393" d="M131 1040v205q0 29 18.5 47.5t47.5 18.5q27 0 46 -18.5t19 -47.5v-205q0 -29 -19.5 -47t-45.5 -18q-29 0 -47.5 18t-18.5 47z" />
<glyph unicode="(" horiz-adv-x="548" d="M115 651q0 217 69 418q35 104 86.5 198.5t118.5 182.5q16 23 43 25t49 -15q23 -16 26 -42.5t-13 -49.5q-61 -78 -107.5 -164t-79.5 -178q-61 -182 -61 -375q0 -195 61 -375q33 -92 79 -178t108 -164q16 -23 13 -49t-26 -43q-23 -16 -49 -14t-43 25q-137 174 -205 380 q-69 201 -69 418z" />
<glyph unicode=")" horiz-adv-x="550" d="M42 -94.5q-3 26.5 13 49.5q61 78 107.5 164t79.5 178q61 180 61 375q0 193 -61 375q-33 92 -79 178t-108 164q-16 23 -13 49t24 43q23 16 49 14t43 -25q137 -178 207 -380q70 -201 69 -418q0 -217 -69 -418q-72 -209 -207 -381q-16 -23 -43 -25t-49 15q-21 16 -24 42.5z " />
<glyph unicode="*" d="M99 800.5q7 24.5 30 37.5l172 100l-172 100q-23 12 -30 37t7 47q12 23 37 30t47 -7l175 -98v198q0 27 17 44.5t44 17.5t45 -17.5t18 -44.5v-198l173 98q23 14 47 7t36 -30q14 -23 7 -47t-29 -37l-172 -100l172 -100q23 -12 30 -37t-8 -47q-12 -23 -36.5 -30t-46.5 7 l-173 98v-198q0 -27 -18 -45.5t-45 -18.5t-44 18.5t-17 45.5v198l-175 -98q-23 -14 -47 -7t-37 30q-14 22 -7 46.5z" />
<glyph unicode="+" d="M115 590q0 29 18.5 47t46.5 18h180v181q0 29 18.5 47t47.5 18q27 0 46.5 -18.5t19.5 -46.5v-181h180q27 0 46 -18.5t19 -46.5q0 -29 -19.5 -47.5t-45.5 -18.5h-180v-180q0 -29 -19.5 -47t-46.5 -18q-29 0 -47.5 18t-18.5 47v180h-180q-29 0 -47 18.5t-18 47.5z" />
<glyph unicode="," horiz-adv-x="393" d="M102 98q0 27 17.5 44.5t44.5 17.5h65q27 0 45.5 -17.5t18.5 -44.5v-98q0 -51 -28.5 -93t-76.5 -63q-25 -10 -48 0.5t-34 32.5q-10 25 0.5 48.5t32.5 33.5q29 10 29 41v35h-4q-27 0 -44.5 18t-17.5 45z" />
<glyph unicode="-" d="M115 590q0 29 18.5 47t46.5 18h492q27 0 46 -18.5t19 -46.5q0 -29 -19.5 -47.5t-45.5 -18.5h-492q-29 0 -47 18.5t-18 47.5z" />
<glyph unicode="." horiz-adv-x="393" d="M111 78q0 35 25.5 60.5t60.5 25.5t60.5 -25.5t25.5 -60.5t-26 -60.5t-60 -25.5q-35 0 -60.5 25.5t-25.5 60.5z" />
<glyph unicode="/" d="M119 -2l491 1352q10 25 35 37t49 2q27 -10 38 -34t1 -50l-491 -1352q-10 -27 -34 -38t-50 -1q-25 10 -37 33.5t-2 50.5z" />
<glyph unicode="0" d="M115 303v696q0 63 24.5 121t66.5 100t98 66.5t122 24.5q63 0 119.5 -24.5t99.5 -66.5t67.5 -99.5t24.5 -121.5v-696q0 -66 -24.5 -122t-67.5 -98t-99.5 -66.5t-119.5 -24.5q-66 0 -122 24.5t-98 66.5t-66.5 98t-24.5 122zM246 303q0 -76 52 -128t128 -52q74 0 127 52 t53 128v696q0 37 -14 70t-39 57.5t-57.5 39t-69.5 14.5q-76 0 -128 -53.5t-52 -127.5v-696z" />
<glyph unicode="1" d="M164 999.5q0 26.5 18 47.5l246 245q14 14 33.5 17.5t38.5 -2.5q41 -16 41 -62v-1188q0 -29 -19.5 -47t-46.5 -18q-29 0 -47 18.5t-18 46.5v1030l-136 -135q-18 -18 -44.5 -18t-47.5 18q-18 21 -18 47.5z" />
<glyph unicode="2" d="M125 1106q-8 27 6 49q63 113 186 143q59 16 120 9t114 -35q53 -29 92 -76t55 -106q37 -121 -22 -236q-86 -162 -160 -305q-33 -61 -65.5 -124t-61.5 -119t-53.5 -102t-38.5 -73h350q27 0 46.5 -18.5t19.5 -46.5q0 -29 -19.5 -47.5t-46.5 -18.5h-459q-39 0 -55 31 q-20 35 -2 65l430 819q35 66 12 136q-10 35 -31.5 62.5t-54.5 43.5q-63 35 -135 17q-35 -10 -62.5 -32t-43.5 -52q-14 -23 -41 -31t-49 6q-23 14 -31 41z" />
<glyph unicode="3" d="M96 196.5q8 26.5 31 41.5q23 12 49.5 5t40.5 -30q31 -53 87 -76.5t116 -7.5q59 16 96 64.5t37 109.5v123q0 74 -53.5 127t-126.5 53q-29 0 -47.5 18.5t-18.5 47.5t18.5 47t47.5 18q74 0 127 52.5t53 128.5v81q0 61 -37 109.5t-96 65.5q-59 16 -115.5 -7.5t-87.5 -76.5 q-14 -23 -40.5 -31t-49.5 6t-31 41t6 49q27 45 66 79t85 53.5t97 23.5t103 -11q104 -29 167.5 -111.5t63.5 -189.5v-81q0 -76 -33 -139.5t-88 -106.5q55 -43 88 -106.5t33 -139.5v-123q0 -106 -63.5 -189t-167.5 -112q-51 -14 -102.5 -10t-97.5 23.5t-85 52t-66 79.5 q-14 23 -6 49.5z" />
<glyph unicode="4" d="M88 365l287 901q10 25 33.5 38t50.5 3q45 -14 45 -62q0 -14 -4 -20q-59 -193 -113 -357q-23 -70 -45.5 -140.5t-41.5 -133t-34.5 -110.5t-23.5 -74h254v221q0 29 18 47t47 18t47.5 -18.5t18.5 -46.5v-221h98q29 0 47.5 -18.5t18.5 -47.5t-18.5 -47t-47.5 -18h-98v-222 q0 -29 -18.5 -47t-47.5 -18t-47 18.5t-18 46.5v222h-344q-33 0 -54 26q-20 27 -10 60z" />
<glyph unicode="5" d="M145 651v586q0 29 18.5 47.5t47.5 18.5h426q29 0 47 -18.5t18 -47.5t-18 -47.5t-47 -18.5h-361v-368q106 57 228 26q104 -29 167.5 -111.5t63.5 -189.5v-225q0 -106 -63.5 -189t-167.5 -112q-51 -14 -102.5 -10t-97.5 23.5t-85 52t-65 79.5q-12 23 -5 49.5t29 41.5 q23 12 49.5 5t40.5 -30q31 -53 87.5 -76.5t115.5 -7.5t96 64.5t37 109.5v225q0 61 -37 109.5t-96 64.5t-115.5 -7t-87.5 -77q-10 -20 -30.5 -28t-42.5 -2q-23 6 -36.5 23t-13.5 40z" />
<glyph unicode="6" d="M133 303v696q0 106 64.5 189.5t167.5 111.5q51 14 102 10.5t97 -23t85 -53.5t66 -79q14 -23 6 -49.5t-31 -40.5t-49.5 -6t-40.5 31q-29 53 -86 76.5t-117 7.5q-59 -16 -96 -64.5t-37 -110.5v-237q80 57 180 57q63 0 121 -24.5t100 -66.5t66.5 -99.5t24.5 -120.5v-205 q0 -66 -24.5 -122t-66.5 -98t-99.5 -66.5t-121.5 -24.5q-66 0 -122 24.5t-98 66.5t-66.5 98t-24.5 122zM264 303q0 -76 53.5 -128t126.5 -52q76 0 128.5 52t52.5 128v205q0 74 -52.5 127t-128.5 53q-37 0 -69.5 -14.5t-57 -39t-39 -57t-14.5 -69.5v-205z" />
<glyph unicode="7" d="M109 1073v164q0 29 19 47.5t46 18.5h492q31 0 51 -25q20 -29 12 -57l-287 -1180q-6 -27 -28.5 -40t-48.5 -7q-23 4 -37.5 22.5t-14.5 40.5q0 4 1 8.5t1 8.5l121 495q25 96 47.5 192.5t42.5 178.5l36 143q15 61 22 88h-344v-98q0 -29 -18.5 -47t-47.5 -18q-27 0 -46 18 t-19 47z" />
<glyph unicode="8" d="M115 303v123q0 76 32.5 139.5t88.5 106.5q-55 43 -88 106.5t-33 139.5v81q0 63 24.5 121t67.5 100t99 66.5t120 24.5q63 0 120.5 -24.5t99.5 -66.5t66.5 -99.5t24.5 -121.5v-81q0 -76 -32.5 -139.5t-86.5 -106.5q53 -43 86 -106.5t33 -139.5v-123q0 -66 -24.5 -122 t-66.5 -98t-99.5 -66.5t-120.5 -24.5t-119.5 24.5t-99.5 66.5t-67.5 98t-24.5 122zM246 303q0 -76 53 -128t127 -52q76 0 128 52t52 128v123q0 74 -52 127t-128 53q-37 0 -69.5 -14t-57.5 -39t-39 -57.5t-14 -69.5v-123zM246 918q0 -76 53 -128.5t127 -52.5q76 0 128 52.5 t52 128.5v81q0 74 -52 127.5t-128 53.5q-37 0 -69.5 -14.5t-57.5 -39t-39 -57.5t-14 -70v-81z" />
<glyph unicode="9" d="M96 795v204q0 63 24.5 121t67.5 100t99.5 66.5t120.5 24.5q63 0 120.5 -24.5t99.5 -66.5t66.5 -99.5t24.5 -121.5v-696q0 -106 -63.5 -189t-166.5 -112q-104 -29 -200 12t-150 133q-14 23 -7 49.5t30 41.5q25 12 50.5 5t39.5 -30q31 -53 87 -76.5t116 -7.5q59 16 96 64.5 t37 109.5v238q-76 -57 -180 -58q-63 0 -120 24.5t-100 66.5t-67.5 98.5t-24.5 122.5zM227 795q0 -76 53.5 -128.5t127.5 -52.5q76 0 128 52.5t52 128.5v204q0 74 -52.5 127.5t-127.5 53.5q-37 0 -70 -14.5t-57.5 -39t-39 -57.5t-14.5 -70v-204z" />
<glyph unicode=":" horiz-adv-x="393" d="M111 78q0 35 25.5 60.5t60.5 25.5q37 0 61.5 -25.5t24.5 -60.5t-25 -60.5t-61 -25.5q-35 0 -60.5 25.5t-25.5 60.5zM111 856q0 35 25.5 60.5t60.5 25.5q37 0 61.5 -25.5t24.5 -60.5t-25 -60.5t-61 -25.5q-35 0 -60.5 25.5t-25.5 60.5z" />
<glyph unicode=";" horiz-adv-x="393" d="M102 98q0 27 17.5 44.5t44.5 17.5h65q27 0 45.5 -17.5t18.5 -44.5v-98q0 -51 -28.5 -93t-76.5 -63q-25 -10 -48 0.5t-34 32.5q-10 25 0.5 48.5t32.5 33.5q29 10 29 41v35h-4q-27 0 -44.5 18t-17.5 45zM111 856q0 35 25.5 60.5t60.5 25.5t60.5 -25.5t25.5 -60.5t-26 -60.5 t-60 -25.5q-35 0 -60.5 25.5t-25.5 60.5z" />
<glyph unicode="&#x3c;" d="M98 590q0 29 23 51l491 410q23 16 49.5 14t43.5 -25q16 -20 16 -41q0 -31 -25 -51q-96 -80 -180 -149l-74 -62q-37 -31 -70.5 -58.5t-61 -51t-44.5 -37.5q16 -14 44 -38t62 -51.5t70 -58.5l74 -61l180 -150q25 -23 25 -51q0 -23 -16 -43t-43 -22t-50 14l-491 410 q-23 18 -23 51z" />
<glyph unicode="=" d="M115 426q0 29 19.5 47.5t45.5 18.5h492q29 0 47 -18.5t18 -47.5t-18.5 -47.5t-46.5 -18.5h-492q-27 0 -46 18.5t-19 47.5zM115 754q0 29 19.5 47t45.5 18h492q29 0 47 -18.5t18 -46.5q0 -29 -18.5 -47.5t-46.5 -18.5h-492q-27 0 -46 18.5t-19 47.5z" />
<glyph unicode="&#x3e;" d="M131 180q0 29 23 51q98 80 182 150l74 61q37 31 69.5 58.5t60 51t46.5 38.5q-18 14 -46 37.5t-61 51.5t-69 58l-74 62q-84 70 -182 149q-23 23 -23 51q0 25 14 41q18 23 45 25t48 -14l491 -410q25 -23 25 -51q0 -33 -25 -51l-491 -410q-20 -16 -47 -14t-46 22 q-14 16 -14 43z" />
<glyph unicode="?" horiz-adv-x="731" d="M60.5 1106q-7.5 27 7.5 49q35 59 88 97t118 53q66 14 131.5 -1.5t118.5 -56.5t86 -100.5t37 -124.5q4 -68 -19.5 -131.5t-70.5 -110.5l-102 -104q-53 -53 -54 -127v-164q0 -29 -18 -47.5t-47 -18.5q-27 0 -46.5 18.5t-19.5 47.5v164q0 61 23.5 117.5t66.5 101.5l105 104 q57 57 51 140q-4 39 -21.5 73.5t-48.5 57.5q-66 49 -145 33q-80 -16 -121 -86q-14 -23 -39.5 -31t-50.5 6q-22 14 -29.5 41zM250 78q0 35 25.5 60.5t60.5 25.5t60.5 -25.5t25.5 -60.5t-25.5 -60.5t-60.5 -25.5t-60.5 25.5t-25.5 60.5z" />
<glyph unicode="@" horiz-adv-x="1564" d="M127 283v368q0 131 50 250t142 213q94 92 213 142.5t250 50.5q133 0 252 -50.5t213 -142.5q92 -94 141.5 -213t49.5 -250v-381q0 -55 -20.5 -103t-57.5 -85t-85 -57.5t-104 -20.5h-409q-55 0 -103.5 20.5t-84 57.5t-57 85t-21.5 103t21.5 103.5t57 84.5t84 57.5 t103.5 21.5h143v139q0 41 -23.5 75.5t-64.5 51.5q-41 16 -83 8t-72 -39q-18 -16 -44 -16t-45 18q-16 18 -16 44t18 42q57 57 135 71.5t152 -13.5q76 -29 121 -95.5t45 -146.5v-549h143q59 0 101.5 42t42.5 101v381q0 106 -40 202.5t-116 172.5q-76 78 -172 118t-205 40 q-106 0 -202.5 -40t-171.5 -118q-78 -76 -118 -172t-40 -203v-368q0 -109 40 -205t118 -172q76 -76 172 -116t202 -40h226q27 0 44 -18.5t17 -42.5q0 -27 -17.5 -44.5t-43.5 -17.5h-226q-131 0 -249.5 49.5t-213.5 141.5q-92 94 -142 213t-50 252zM618 270q0 -59 42 -101 t102 -42h143v287h-143q-59 0 -101.5 -42.5t-42.5 -101.5z" />
<glyph unicode="A" horiz-adv-x="884" d="M51 74l328 1188q6 23 23.5 36t39.5 13q23 0 40.5 -13.5t23.5 -35.5l328 -1188q3 -10 3 -20q0 -16 -9 -29q-13 -23 -42 -31q-10 -3 -19 -3q-16 0 -30 8q-23 13 -30 40q-8 31 -19 67q-10 33 -21.5 76t-25.5 97h-397q-16 -53 -26.5 -96.5t-20.5 -76.5q-10 -37 -19 -67 q-8 -27 -31 -40q-14 -8 -30 -8q-10 0 -21 3q-27 8 -40 31q-8 14 -8 29q0 10 3 20zM281 410h323q-20 76 -42.5 156.5t-44 158.5t-41 148.5t-34.5 125.5q-16 -55 -34.5 -125.5t-40 -148.5t-44 -158.5t-42.5 -156.5z" />
<glyph unicode="B" horiz-adv-x="876" d="M139 66v1171q0 29 18.5 47.5t47.5 18.5h246q63 0 120.5 -25t99.5 -67t66.5 -99t24.5 -121v-73q0 -76 -33 -139.5t-88 -106.5q55 -43 88 -106.5t33 -139.5v-115q0 -66 -24.5 -122t-66.5 -98t-99.5 -66.5t-120.5 -24.5h-246q-29 0 -47.5 18.5t-18.5 47.5zM270 131h181 q74 0 127 52.5t53 127.5v115q0 37 -14.5 69.5t-39 57.5t-57.5 39t-69 14h-181v-475zM270 737h181q74 0 127 52.5t53 128.5v73q0 37 -14.5 70t-39 57.5t-57.5 38.5t-69 14h-181v-434z" />
<glyph unicode="C" horiz-adv-x="788" d="M115 303v696q0 106 63.5 189.5t167.5 111.5q40 11 80 12l23 -1q51 -4 97 -23.5t85 -53.5t65 -79q8 -14 8 -30q0 -9 -3 -19q-7 -27 -29 -41q-23 -14 -49.5 -6t-40.5 31q-31 53 -87 76q-33 14 -68 14q-24 0 -48 -6q-59 -16 -96 -64.5t-37 -110.5v-696q0 -61 36.5 -109.5 t96.5 -64.5q24 -7 48 -7q34 0 68 14q56 24 87 77q14 23 40.5 30t49.5 -5q23 -14 29 -41q3 -10 3 -19q0 -16 -8 -31q-27 -47 -65.5 -79.5t-84.5 -52t-97 -23.5q-11 -1 -23 -1l-80 11q-104 29 -167.5 112t-63.5 189z" />
<glyph unicode="D" horiz-adv-x="876" d="M139 66v1171q0 29 18.5 47.5t47.5 18.5h246q63 0 120.5 -25t99.5 -67t66.5 -99t24.5 -121v-680q0 -66 -24.5 -122t-66.5 -98t-99.5 -66.5t-120.5 -24.5h-246q-29 0 -47.5 18.5t-18.5 47.5zM270 131h181q76 0 128 52.5t52 127.5v680q0 74 -52.5 127t-127.5 53h-181v-1040z " />
<glyph unicode="E" horiz-adv-x="753" d="M139 66v1171q0 29 18.5 47.5t47.5 18.5h409q29 0 47.5 -18.5t18.5 -47.5t-18.5 -47.5t-47.5 -18.5h-344v-434h303q29 0 47.5 -18.5t18.5 -46.5q0 -29 -18.5 -47.5t-47.5 -18.5h-303v-475h344q29 0 47.5 -18.5t18.5 -46.5q0 -29 -18.5 -47.5t-47.5 -18.5h-409 q-29 0 -47.5 18.5t-18.5 47.5z" />
<glyph unicode="F" horiz-adv-x="737" d="M139 66v1171q0 29 19.5 47.5t46.5 18.5h409q29 0 47.5 -18.5t18.5 -47.5t-18.5 -47.5t-47.5 -18.5h-344v-434h303q29 0 47.5 -18.5t18.5 -46.5q0 -29 -18.5 -47.5t-47.5 -18.5h-303v-540q0 -29 -18.5 -47.5t-46.5 -18.5q-27 0 -46.5 18.5t-19.5 47.5z" />
<glyph unicode="G" horiz-adv-x="843" d="M115 303v696q0 106 64.5 189.5t166.5 111.5q40 11 80 12l23 -1q51 -4 97 -23.5t85 -53.5t65 -79q14 -23 7 -49.5t-31 -40.5q-23 -14 -49.5 -6t-40.5 31q-29 53 -85 76q-33 14 -68 14q-24 0 -48 -6q-59 -16 -97 -64.5t-38 -110.5v-696q0 -76 53 -128t127 -52q76 0 128 52 t52 128v262h-139q-27 0 -46.5 18.5t-19.5 47.5t19.5 47t46.5 18h205q29 0 47 -18.5t18 -46.5v-328q0 -66 -24.5 -122t-66.5 -98t-99.5 -66.5t-120.5 -24.5q-66 0 -122 24.5t-98 66.5t-66.5 98t-24.5 122z" />
<glyph unicode="H" horiz-adv-x="901" d="M139 57v1188q0 29 19.5 47.5t46.5 18.5q29 0 47 -18.5t18 -47.5v-508h361v508q0 29 19.5 47.5t45.5 18.5q29 0 47.5 -18.5t18.5 -47.5v-1188q0 -29 -18.5 -47t-47.5 -18q-27 0 -46 18.5t-19 46.5v549h-361v-549q0 -29 -18.5 -47t-46.5 -18q-27 0 -46.5 18t-19.5 47z" />
<glyph unicode="I" horiz-adv-x="409" d="M139 57v1188q0 29 19.5 47.5t46.5 18.5q29 0 47 -18.5t18 -47.5v-1188q0 -29 -18.5 -47t-46.5 -18q-27 0 -46.5 18t-19.5 47z" />
<glyph unicode="J" horiz-adv-x="681" d="M52 74q-2 9 -2 17q0 17 9 32q14 23 40 31t51 -7q41 -25 89 -24.5t91 24.5q41 23 65.5 66t24.5 90v942q0 29 18.5 47.5t46.5 18.5q27 0 46.5 -18.5t19.5 -47.5v-942q0 -84 -42 -156.5t-114 -113.5t-155.5 -41t-155.5 41q-25 14 -32 41z" />
<glyph unicode="K" horiz-adv-x="862" d="M139 57v1188q0 29 19.5 47.5t46.5 18.5q29 0 47 -18.5t18 -47.5v-543l414 582q16 23 43 27q5 1 11 1q21 0 38 -14q23 -16 27 -43q1 -5 1 -10q0 -21 -13 -39l-318 -446l324 -674q7 -14 7 -28q0 -11 -4 -22q-9 -26 -34 -38q-14 -7 -28 -7q-11 0 -22 4q-26 9 -36 34 l-295 608l-115 -160v-420q0 -29 -18.5 -47t-46.5 -18q-27 0 -46.5 18t-19.5 47z" />
<glyph unicode="L" horiz-adv-x="712" d="M139 66v1179q0 29 18.5 47.5t47.5 18.5q27 0 46 -18.5t19 -47.5v-1114h344q27 0 46.5 -18.5t19.5 -46.5q0 -29 -19.5 -47.5t-46.5 -18.5h-409q-29 0 -47.5 18.5t-18.5 47.5z" />
<glyph unicode="M" horiz-adv-x="1064" d="M139 57v1188q0 23 14.5 41.5t36.5 22.5q7 1 14 1q15 0 29 -6q20 -9 31 -30q53 -115 105 -221q43 -92 88 -189.5t75 -161.5q14 31 34 73t41.5 88t44 95.5t44.5 94.5q51 106 105 221q10 20 30 30q14 6 30 6q7 0 13 -1q23 -4 37.5 -22.5t14.5 -41.5v-1188q0 -29 -19.5 -47 t-46.5 -18q-29 0 -47 18.5t-18 46.5v895q-37 -78 -73 -154l-65 -139q-35 -72 -65 -139q-20 -37 -60 -37q-43 0 -59 37q-31 68 -65 139q-29 61 -66 138t-72 155v-895q0 -29 -19.5 -47t-45.5 -18q-29 0 -47.5 18t-18.5 47z" />
<glyph unicode="N" horiz-adv-x="983" d="M139 57v1188q0 23 14.5 41.5t36.5 22.5q23 4 43.5 -5.5t30.5 -29.5q84 -176 166 -346q35 -72 73 -150t74.5 -154.5t71.5 -148.5t64 -131v901q0 29 18.5 47.5t46.5 18.5q29 0 47.5 -18.5t18.5 -47.5v-1188q0 -23 -14.5 -41t-36.5 -22q-8 -2 -17 -2q-14 0 -26 6 q-20 10 -31 31q-86 176 -168 346q-35 72 -73 149.5t-74.5 154.5t-70.5 148.5t-63 130.5v-901q0 -29 -18.5 -47t-46.5 -18q-29 0 -47.5 18t-18.5 47z" />
<glyph unicode="O" d="M115 303v696q0 63 24.5 121t66.5 100t98 66.5t122 24.5q63 0 120.5 -24.5t99.5 -66.5t66.5 -99.5t24.5 -121.5v-696q0 -66 -24.5 -122t-66.5 -98t-99.5 -66.5t-120.5 -24.5q-66 0 -122 24.5t-98 66.5t-66.5 98t-24.5 122zM246 303q0 -76 52 -128t128 -52q74 0 127 52 t53 128v696q0 37 -14 70t-39 57.5t-57.5 39t-69.5 14.5q-76 0 -128 -53.5t-52 -127.5v-696z" />
<glyph unicode="P" horiz-adv-x="819" d="M139 57v1180q0 29 18.5 47.5t47.5 18.5h246q63 0 120.5 -25t99.5 -67t66.5 -99t24.5 -121v-114q0 -66 -24.5 -122.5t-66.5 -98.5t-99.5 -66.5t-120.5 -24.5h-181v-508q0 -29 -18.5 -47t-46.5 -18q-29 0 -47.5 18t-18.5 47zM270 696h181q74 0 127 52.5t53 128.5v114 q0 37 -14.5 70t-39 57.5t-57.5 38.5t-69 14h-181v-475z" />
<glyph unicode="Q" d="M115 303v696q0 63 24.5 121t66.5 100t98 66.5t122 24.5q63 0 120.5 -24.5t99.5 -66.5t66.5 -99.5t24.5 -121.5v-696q0 -70 -27.5 -129t-74.5 -102l94 -162q9 -14 9 -30q0 -9 -3 -19q-8 -27 -30 -41q-14 -8 -31 -8q-9 0 -19 3q-27 7 -41 29l-92 162q-23 -6 -47 -10t-49 -4 q-66 0 -122 24.5t-98 66.5t-66.5 98t-24.5 122zM246 303q0 -76 53 -128t127 -52q76 0 128 52t52 128v696q0 74 -52 127.5t-128 53.5q-37 0 -69.5 -14.5t-57.5 -39t-39 -57.5t-14 -70v-696z" />
<glyph unicode="R" d="M139 57v1180q0 29 19.5 47.5t46.5 18.5h246q63 0 120.5 -25t99.5 -67t66.5 -99t24.5 -121v-114q0 -98 -53.5 -176t-139.5 -113l189 -508q5 -12 5 -24q0 -13 -6 -25q-11 -25 -38 -35q-12 -5 -24 -5l-25 6q-25 11 -35 38l-197 530h-168v-508q0 -29 -18.5 -47t-46.5 -18 q-27 0 -46.5 18t-19.5 47zM270 696h181q76 0 128 52.5t52 128.5v114q0 74 -52.5 127t-127.5 53h-181v-475z" />
<glyph unicode="S" horiz-adv-x="782" d="M93 202q7 26 30 40t49.5 7t40.5 -32q20 -35 53 -58.5t74 -31.5q20 -4 40 -4q61 0 112 39q70 51 75 137q1 9 1 18q0 32 -11 62q-14 39 -43 67l-328 336q-47 47 -69 111q-18 50 -18 101q0 14 1 28q4 68 37 126t86 99t119 57q34 8 68 7l63 -6q66 -14 119 -52.5t88 -97.5 q14 -23 7 -49.5t-32 -40.5q-23 -14 -49 -6t-39 31q-41 70 -121 86q-20 4 -39 4q-57 0 -106 -37q-63 -47 -70 -129q-1 -8 0 -16q0 -70 50 -124l327 -337q47 -49 71 -114q20 -55 20 -114q0 -10 -1 -20q-6 -70 -38.5 -130.5t-88.5 -101.5q-55 -41 -122 -57q-36 -9 -73 -9l-63 7 q-68 14 -124 54t-91 100q-8 16 -7 31q-1 10 2 19z" />
<glyph unicode="T" horiz-adv-x="778" d="M57 1237q0 29 19.5 47.5t46.5 18.5h532q29 0 47.5 -18.5t18.5 -47.5t-18.5 -47.5t-47.5 -18.5h-200v-1114q0 -29 -18.5 -47t-47.5 -18q-27 0 -46 18.5t-19 46.5v1114h-201q-27 0 -46.5 18.5t-19.5 47.5z" />
<glyph unicode="U" horiz-adv-x="868" d="M123 303v942q0 29 18.5 47.5t46.5 18.5q27 0 46.5 -18.5t19.5 -47.5v-942q0 -76 52 -128t128 -52q74 0 127 52t53 128v942q0 29 18.5 47.5t47.5 18.5q27 0 46 -18.5t19 -47.5v-942q0 -66 -24.5 -122t-67.5 -98t-99 -66.5t-120 -24.5q-66 0 -122 24.5t-98 66.5t-66.5 98 t-24.5 122z" />
<glyph unicode="V" horiz-adv-x="917" d="M70 1227q-3 10 -3 20q0 16 8 30q13 24 40 32q8 2 16 2q18 0 34 -9q24 -13 30 -40q53 -188 102 -367q20 -76 42.5 -157t44.5 -158.5t41 -149.5t36 -127q14 55 33.5 127t41 149.5t44 158.5t43.5 157q49 178 102 367q6 27 30 40q16 9 33 9q8 0 17 -2q27 -8 40 -32 q8 -15 8 -30q0 -10 -3 -20l-328 -1188q-4 -20 -21.5 -33.5t-39.5 -13.5q-23 0 -40.5 13t-23.5 34z" />
<glyph unicode="W" horiz-adv-x="1429" d="M78 1229q-2 9 -2 17q0 18 9 34q13 23 40 29t50.5 -7.5t29.5 -41.5q41 -174 82 -342q16 -72 35.5 -149t38 -153.5t36 -148.5t31.5 -131q14 59 30.5 131t35.5 148l36 154q18 77 37 149q41 168 84 342q4 23 22.5 37t41.5 14q49 0 63 -51q41 -174 82 -342q16 -72 35.5 -149 t38 -153.5t36 -148.5t31.5 -131q14 59 31 131t35 148l37 154q18 77 37 149q41 168 84 342q6 29 28.5 42t49.5 7t40 -29q10 -16 11 -35q0 -8 -2 -16l-287 -1188q-6 -23 -23.5 -36t-40.5 -13t-41 13t-22 36q-43 172 -84 342q-18 72 -36.5 149.5t-37 154.5t-35 148.5 t-30.5 131.5q-14 -59 -31.5 -131t-36 -149t-38 -154.5t-36.5 -149.5q-41 -170 -81 -342q-6 -23 -23.5 -36t-40.5 -13t-41 13t-22 36z" />
<glyph unicode="X" horiz-adv-x="864" d="M62 36q-4 11 -3 22q0 14 7 28l292 586l-272 545q-12 23 -3 49t34 39q13 6 26 5q11 0 23 -3q27 -8 39 -33l227 -455l227 455q12 25 38 33q11 4 23 3q14 0 28 -5q25 -12 32.5 -39t-2.5 -49l-272 -545l293 -586q6 -14 5 -28q0 -11 -3 -22q-8 -26 -33 -38q-14 -7 -28 -7 q-11 0 -22 4q-26 9 -38 34l-248 495l-248 -495q-12 -25 -39 -34q-11 -4 -22 -4q-14 0 -27 7q-25 12 -34 38z" />
<glyph unicode="Y" horiz-adv-x="823" d="M62 1266q9 27 34 39q13 6 27 5q11 0 22 -3q27 -8 39 -33l228 -455l227 455q12 25 38 33q11 4 22 3q14 0 28 -5q25 -12 34 -39q4 -11 4 -22q0 -14 -7 -27l-281 -562v-598q0 -29 -18.5 -47t-46.5 -18q-29 0 -47.5 18.5t-18.5 46.5v598l-280 562q-7 13 -7 27q-1 11 3 22z " />
<glyph unicode="Z" horiz-adv-x="786" d="M82 66q0 12 6 24q109 260 201 481q39 94 79 188.5t73.5 176.5t60 144.5t39.5 90.5h-394q-29 0 -47 18.5t-18 47.5t18.5 47.5t46.5 18.5h492q37 0 55 -29q10 -20 11 -37q0 -8 -5 -25q-111 -262 -202 -483q-41 -94 -80 -189.5t-74 -176t-60.5 -142t-37.5 -90.5h393 q29 0 47.5 -18.5t18.5 -46.5q0 -29 -18.5 -47.5t-47.5 -18.5h-492q-37 0 -55 29q-10 21 -10 37z" />
<glyph unicode="[" horiz-adv-x="524" d="M139 -98v1499q0 29 18.5 47t47.5 18h205q29 0 47 -18t18 -47t-18.5 -47.5t-46.5 -18.5h-140v-1368h140q29 0 47 -18.5t18 -46.5q0 -29 -18.5 -47.5t-46.5 -18.5h-205q-29 0 -47.5 18.5t-18.5 47.5z" />
<glyph unicode="\" d="M119 1305q-10 27 2 50t37 34q27 10 50 -2.5t34 -36.5l491 -1352q10 -27 -1 -50.5t-38 -33.5q-25 -10 -49 1t-35 38z" />
<glyph unicode="]" horiz-adv-x="524" d="M49 -98q0 29 18.5 47t47.5 18h139v1368h-139q-29 0 -47.5 18.5t-18.5 47.5t18.5 47t47.5 18h204q27 0 46.5 -18t19.5 -47v-1499q0 -29 -19.5 -47.5t-46.5 -18.5h-204q-29 0 -47.5 18.5t-18.5 47.5z" />
<glyph unicode="^" horiz-adv-x="1024" d="M124 872.5q-1 26.5 15 47.5l324 368q18 23 49 23t49 -23l324 -368q16 -20 15 -47t-21 -46q-23 -18 -49.5 -16t-45.5 23q-55 66 -108 124q-45 51 -91 103.5t-73 83.5q-29 -31 -74 -83l-90 -104q-53 -59 -108 -124q-18 -20 -45 -22.5t-50 15.5q-20 19 -21 45.5z" />
<glyph unicode="_" horiz-adv-x="1024" d="M-66 -229q0 29 18.5 47t47.5 18h1024q27 0 46.5 -18.5t19.5 -46.5q0 -29 -19.5 -47.5t-46.5 -18.5h-1024q-29 0 -47.5 18.5t-18.5 47.5z" />
<glyph unicode="`" horiz-adv-x="1024" d="M345 1282q-1 27 15 47q18 20 46 22.5t49 -16.5l204 -184q20 -18 21.5 -45t-16.5 -47q-18 -23 -45 -24t-48 18l-204 184q-21 18 -22 45z" />
<glyph unicode="a" horiz-adv-x="720" d="M61 270q0 55 20.5 103.5t57.5 85.5t85 57.5t104 20.5h143v139q0 43 -23.5 77.5t-62.5 51.5q-27 11 -55 11l-27 -3q-41 -8 -70 -39q-18 -18 -43.5 -18t-44.5 18q-18 18 -18 44t18 42q57 57 136 73q26 5 51 5q51 0 100 -20q74 -31 118 -96.5t44 -145.5v-610 q0 -27 -18.5 -44.5t-43.5 -17.5h-204q-55 0 -103.5 20.5t-85.5 57.5t-57.5 85t-20.5 103zM184 270q0 -59 42 -101t102 -42h143v287h-143q-59 0 -101.5 -42.5t-42.5 -101.5z" />
<glyph unicode="b" horiz-adv-x="794" d="M143 66v1220q0 27 17.5 44.5t44.5 17.5q25 0 43 -17.5t18 -44.5v-356h144q55 0 103 -20.5t84 -57.5t57.5 -85t21.5 -103v-394q0 -55 -21.5 -103t-57.5 -85t-84 -57.5t-103 -20.5h-205q-27 0 -44.5 17.5t-17.5 44.5zM266 127h144q59 0 101 42t42 101v394q0 59 -42 101 t-101 42h-144v-680z" />
<glyph unicode="c" horiz-adv-x="671" d="M119 262v410q0 82 44 148.5t120 97.5q51 20 102 20q26 0 51 -5q78 -15 137 -73q16 -18 16.5 -43.5t-16.5 -44.5q-18 -16 -43.5 -16t-44.5 16q-31 33 -72 41q-14 3 -28 3q-28 0 -55 -11q-41 -16 -64.5 -53t-23.5 -80v-410q0 -43 23.5 -80t64.5 -53q27 -11 55 -11 q14 0 28 3q42 8 72 39q18 18 44 18t44 -18q16 -16 16.5 -42t-16.5 -44q-59 -57 -137 -73q-26 -5 -51 -5q-51 0 -102 20q-76 31 -120 97.5t-44 148.5z" />
<glyph unicode="d" horiz-adv-x="794" d="M119 270v394q0 55 20.5 103t57 85t85 57.5t103.5 20.5h143v356q0 27 17.5 44.5t44.5 17.5q25 0 43 -17.5t18 -44.5v-1220q0 -27 -18.5 -44.5t-42.5 -17.5h-205q-55 0 -103.5 20.5t-85 57.5t-57 85t-20.5 103zM242 270q0 -59 42 -101t101 -42h143v680h-143q-59 0 -101 -42 t-42 -101v-394z" />
<glyph unicode="e" horiz-adv-x="753" d="M119 262v410q0 55 20.5 103t57 85t85 57.5t103.5 20.5t103.5 -20.5t85 -57.5t57 -85t20.5 -103v-205q0 -27 -17.5 -44t-43.5 -17h-348v-144q0 -43 23.5 -80t64.5 -53q27 -11 55 -11q14 0 28 3q42 8 72 39q18 18 44 18t44 -18q18 -16 18.5 -42t-18.5 -44q-57 -57 -136 -73 q-26 -5 -52 -5q-52 0 -102 20q-76 31 -120 97.5t-44 148.5zM242 528h286v144q0 59 -42 101t-101 42t-101 -42t-42 -101v-144z" />
<glyph unicode="f" horiz-adv-x="606" d="M53 868q0 27 17.5 44.5t44.5 17.5h102v151q0 55 20.5 103.5t57.5 85.5t85 57.5t103 20.5q27 0 44.5 -17.5t17.5 -44.5t-17.5 -44t-44.5 -17q-59 0 -101 -42t-42 -102v-151h143q27 0 44.5 -17.5t17.5 -44.5t-17.5 -44t-44.5 -17h-143v-750q0 -27 -17.5 -44t-43.5 -17 q-27 0 -44.5 17.5t-17.5 43.5v750h-102q-27 0 -44.5 17t-17.5 44z" />
<glyph unicode="g" horiz-adv-x="786" d="M119 270v394q0 55 20.5 103t57 85t85 57.5t103.5 20.5h205q27 0 44 -17.5t17 -44.5v-1015q0 -82 -44 -148.5t-120 -97.5q-51 -20 -102 -21q-26 0 -51 5q-78 15 -137 73q-18 18 -18.5 44t18.5 42q18 18 43.5 18.5t44.5 -18.5q31 -31 72 -39q14 -3 28 -2q28 0 55 10 q41 16 64.5 53.5t23.5 80.5v151h-143q-55 0 -103.5 20.5t-85 57.5t-57 85t-20.5 103zM242 270q0 -59 42 -101t101 -42h143v680h-143q-59 0 -101 -42t-42 -101v-394z" />
<glyph unicode="h" horiz-adv-x="802" d="M143 57v1229q0 27 18.5 44.5t43.5 17.5q27 0 44 -17.5t17 -44.5v-356h144q55 0 103 -20.5t85 -57.5t57.5 -85t20.5 -103v-607q0 -27 -17.5 -44t-44.5 -17q-25 0 -43 17.5t-18 43.5v607q0 59 -42 101t-101 42h-144v-750q0 -27 -17.5 -44t-43.5 -17q-25 0 -43.5 17 t-18.5 44z" />
<glyph unicode="i" horiz-adv-x="409" d="M123 1184q0 35 23.5 58.5t58.5 23.5t58.5 -23.5t23.5 -58.5t-23.5 -58.5t-58.5 -23.5t-58.5 23.5t-23.5 58.5zM143 57v820q0 27 18.5 44t43.5 17q27 0 44 -17.5t17 -43.5v-820q0 -27 -17.5 -44t-43.5 -17q-25 0 -43.5 17t-18.5 44z" />
<glyph unicode="j" horiz-adv-x="425" d="M-45 -352q0 27 18.5 44t42.5 17q59 0 101.5 42t42.5 102v1024q0 27 18.5 44t42.5 17q27 0 44.5 -17.5t17.5 -43.5v-1024q0 -55 -20.5 -103.5t-57.5 -85.5t-85 -57.5t-104 -20.5q-25 0 -43 17.5t-18 44.5zM139 1184q0 35 23.5 58.5t58.5 23.5t58.5 -23.5t23.5 -58.5 t-23.5 -58.5t-58.5 -23.5t-58.5 23.5t-23.5 58.5z" />
<glyph unicode="k" horiz-adv-x="778" d="M143 57v1229q0 27 17.5 44.5t44.5 17.5q25 0 43 -17.5t18 -44.5v-751l342 383q16 18 42 19t46 -15q20 -17 20 -45q0 -24 -16 -41l-249 -279l258 -471q8 -14 7 -29q0 -9 -2 -17q-7 -24 -30 -36q-15 -8 -31 -8q-8 0 -16 2q-25 6 -37 29l-235 432l-99 -109v-293 q0 -27 -18.5 -44t-42.5 -17q-27 0 -44.5 17t-17.5 44z" />
<glyph unicode="l" horiz-adv-x="409" d="M137 199v1087q0 27 18.5 44.5t43.5 17.5q27 0 44 -17.5t17 -44.5v-1087q0 -29 14.5 -51.5t36.5 -36.5q23 -12 30 -37q2 -8 2 -16q0 -16 -9 -31q-12 -23 -37 -29q-8 -2 -16 -2q-16 0 -31 8q-51 31 -82 83.5t-31 111.5z" />
<glyph unicode="m" horiz-adv-x="1212" d="M143 57v811q0 27 17.5 44.5t44.5 17.5h614q55 0 103.5 -20.5t84 -57.5t57 -85t21.5 -103v-607q0 -27 -18 -44t-43 -17q-27 0 -44 17.5t-17 43.5v607q0 59 -42 101t-102 42h-143v-750q0 -27 -18.5 -44t-43.5 -17q-27 0 -44 17.5t-17 43.5v750h-287v-750q0 -27 -18.5 -44 t-42.5 -17q-27 0 -44.5 17t-17.5 44z" />
<glyph unicode="n" horiz-adv-x="802" d="M143 57v811q0 27 17.5 44.5t44.5 17.5h205q55 0 103 -20.5t84 -57.5t57.5 -85t21.5 -103v-607q0 -27 -18.5 -44t-43.5 -17q-27 0 -44 17.5t-17 43.5v607q0 59 -42 101t-101 42h-144v-750q0 -27 -18.5 -44t-42.5 -17q-27 0 -44.5 17t-17.5 44z" />
<glyph unicode="o" horiz-adv-x="770" d="M119 262v410q0 55 20.5 103t57 85t85 57.5t103.5 20.5t103.5 -20.5t84 -57.5t57 -85t21.5 -103v-410q0 -55 -21.5 -103t-57 -85t-84 -57.5t-103.5 -20.5t-103.5 20.5t-85 57.5t-57 85t-20.5 103zM242 262q0 -59 42 -101t101 -42t101 42t42 101v410q0 59 -42 101t-101 42 t-101 -42t-42 -101v-410z" />
<glyph unicode="p" horiz-adv-x="794" d="M143 -352v1220q0 27 17.5 44.5t44.5 17.5h205q55 0 103 -20.5t84 -57.5t57.5 -85t21.5 -103v-394q0 -55 -21.5 -103t-57.5 -85t-84 -57.5t-103 -20.5h-144v-356q0 -27 -18.5 -44.5t-42.5 -17.5q-27 0 -44.5 17.5t-17.5 44.5zM266 127h144q59 0 101 42t42 101v394 q0 59 -42 101t-101 42h-144v-680z" />
<glyph unicode="q" horiz-adv-x="794" d="M119 270v394q0 55 20.5 103t57 85t85 57.5t103.5 20.5h205q25 0 43 -17.5t18 -44.5v-1220q0 -27 -18.5 -44.5t-42.5 -17.5q-27 0 -44.5 17.5t-17.5 44.5v356h-143q-55 0 -103.5 20.5t-85 57.5t-57 85t-20.5 103zM242 270q0 -59 42 -101t101 -42h143v680h-143 q-59 0 -101 -42t-42 -101v-394z" />
<glyph unicode="r" horiz-adv-x="612" d="M143 57v811q0 27 17.5 44.5t44.5 17.5h205q70 0 133 -35q23 -14 28 -38q2 -7 2 -15q0 -15 -8 -31q-12 -23 -36.5 -30t-47.5 7q-35 18 -71 19h-144v-750q0 -27 -17.5 -44t-43.5 -17q-27 0 -44.5 17t-17.5 44z" />
<glyph unicode="s" horiz-adv-x="673" d="M98 170q6 25 29 37t47.5 6t36.5 -29q33 -53 94 -63q11 -2 23 -2q46 0 86 35q42 38 41 90v14q-4 61 -56 98l-190 136q-47 33 -73.5 81t-31.5 103q-1 9 0 18q0 47 18 90q22 51 62 88q41 39 95 56q35 11 71 11q18 0 37 -3q55 -10 101.5 -41t74.5 -80q12 -23 6 -47.5 t-28 -36.5q-23 -12 -47.5 -6t-36.5 29q-29 49 -88 59q-12 2 -23 2q-45 0 -80 -33q-39 -36 -39 -88q0 -67 54 -102l190 -133q47 -35 74.5 -84t32.5 -109q1 -10 0 -19q0 -49 -18 -92q-22 -52 -64 -92q-43 -41 -98 -57q-36 -11 -73 -11q-19 0 -38 3q-59 10 -106.5 42t-76.5 83 q-8 15 -8 31q0 8 2 16z" />
<glyph unicode="t" horiz-adv-x="606" d="M53 868q0 27 17.5 44.5t44.5 17.5h102v356q0 27 17.5 44.5t44.5 17.5t44 -17.5t17 -44.5v-356h143q27 0 44.5 -17.5t17.5 -44.5t-17.5 -44t-44.5 -17h-143v-545q0 -59 42 -101t101 -42q27 0 44.5 -17.5t17.5 -44.5t-17.5 -44t-44.5 -17q-55 0 -103 20.5t-85 57.5 t-57.5 85t-20.5 103v545h-102q-27 0 -44.5 17t-17.5 44z" />
<glyph unicode="u" horiz-adv-x="802" d="M127 270v607q0 27 17.5 44t43.5 17q27 0 44.5 -17.5t17.5 -43.5v-607q0 -59 42 -101t101 -42h144v750q0 27 17 44t44 17t44 -17.5t17 -43.5v-811q0 -27 -17 -44.5t-44 -17.5h-205q-55 0 -103 20.5t-85 57.5t-57.5 85t-20.5 103z" />
<glyph unicode="v" horiz-adv-x="757" d="M74 858q-2 8 -2 16q0 16 8 31q12 23 37 31q8 2 15 2l30 -8q23 -12 31 -35q33 -115 67 -227q29 -96 60.5 -204t58.5 -194q25 86 57.5 193.5t61.5 204.5q35 113 67 227q8 23 31 35q15 8 31 8q8 0 16 -2q25 -8 37 -31q7 -14 7 -28q0 -10 -3 -19l-246 -819 q-6 -18 -22.5 -30.5t-36.5 -12.5t-36.5 12t-23.5 31z" />
<glyph unicode="w" horiz-adv-x="1101" d="M80 862q-2 8 -2 15q0 16 9 31q13 22 38 28t46.5 -7.5t27.5 -37.5q27 -100 51 -201q23 -86 47.5 -187.5t46.5 -191.5q23 90 48.5 191.5t47.5 187.5l49 201q14 47 60 47q23 0 39 -12.5t20 -34.5q27 -100 51 -201q23 -86 47.5 -187.5t47.5 -191.5q23 90 48 191.5t48 187.5 l49 201q6 25 27.5 38t48.5 7q25 -6 37 -28q8 -14 8 -30q0 -8 -2 -16l-205 -819q-4 -23 -20.5 -35t-38.5 -12q-45 0 -60 47l-49 201q-23 86 -48.5 186t-47.5 193q-23 -92 -47.5 -192.5t-46.5 -186.5q-25 -100 -52 -201q-4 -23 -20 -35t-39 -12q-45 0 -59 47z" />
<glyph unicode="x" horiz-adv-x="737" d="M81 40q-3 9 -3 17q0 15 8 29l213 389l-205 371q-12 23 -5 47.5t30 36.5q14 8 29 8q9 0 18 -3q25 -7 37 -30l166 -303l168 303q12 23 36 30q9 3 18 3q15 0 30 -8q23 -12 29.5 -37t-5.5 -47l-205 -371l213 -389q8 -14 8 -29q0 -9 -3 -17q-7 -24 -29 -36q-15 -8 -31 -8 q-8 0 -16 2q-25 6 -37 29l-176 319l-174 -319q-12 -23 -37 -29q-8 -2 -16 -2q-16 0 -31 8q-23 12 -30 36z" />
<glyph unicode="y" horiz-adv-x="755" d="M41 -352q0 27 17.5 44t43.5 17q47 0 85 27.5t53 75.5l73 245l-239 801q-8 25 4 47.5t37 30.5q8 2 16 2q16 0 30 -8q22 -12 29 -35l187 -625l188 625q6 23 29 35q15 8 31 8q8 0 16 -2q25 -8 37 -31q7 -14 7 -28q0 -10 -3 -19l-246 -819l-78 -262q-29 -88 -96 -137 q-72 -53 -160 -54q-27 0 -44 17.5t-17 44.5z" />
<glyph unicode="z" horiz-adv-x="704" d="M86 66q0 12 6 28q82 162 154 303q31 59 62.5 121t60 117t51 100t37.5 72h-310q-27 0 -44 17.5t-17 43.5q0 27 17.5 44.5t43.5 17.5h410q35 0 51 -29q10 -16 10 -33q0 -8 -2 -14t-6 -14q-82 -162 -153 -303q-31 -59 -63 -122t-59.5 -118t-51 -99t-35.5 -71h309 q25 0 43 -17.5t18 -43.5q0 -27 -18 -44.5t-43 -17.5h-410q-37 0 -53 29q-8 15 -8 33z" />
<glyph unicode="{" horiz-adv-x="524" d="M33 672q0 29 18.5 47t46.5 18q41 0 70 29t29 70v409q0 47 18 89t49 73t73 49.5t89 18.5q29 0 47.5 -18.5t18.5 -47.5t-18.5 -47.5t-47.5 -18.5q-41 0 -69.5 -28.5t-28.5 -69.5v-409q0 -47 -18.5 -90.5t-51.5 -73.5q33 -31 51.5 -74t18.5 -90v-451q0 -41 28.5 -69.5 t69.5 -28.5q29 0 47.5 -18.5t18.5 -46.5q0 -29 -18.5 -47.5t-47.5 -18.5q-47 0 -89 18.5t-73 49t-49 72.5t-18 89v451q0 41 -29 69.5t-70 28.5q-29 0 -47 18.5t-18 47.5z" />
<glyph unicode="|" horiz-adv-x="425" d="M158 -352v2048q0 29 18.5 47t46.5 18q29 0 47.5 -18.5t18.5 -46.5v-2048q0 -29 -18.5 -47.5t-47.5 -18.5t-47 18.5t-18 47.5z" />
<glyph unicode="}" horiz-adv-x="524" d="M33 -106q0 29 18.5 47t46.5 18q41 0 70 28.5t29 69.5v451q0 100 67 164q-68 63 -67 164v409q0 41 -29 69.5t-70 28.5q-29 0 -47 18.5t-18 47.5t18.5 47.5t46.5 18.5q47 0 89 -18.5t73 -49.5t49.5 -73t18.5 -89v-409q0 -41 28.5 -70t69.5 -29q27 0 46.5 -18.5t19.5 -46.5 q0 -29 -19.5 -47.5t-46.5 -18.5q-41 0 -69.5 -28.5t-28.5 -69.5v-451q0 -47 -18.5 -89t-49.5 -72.5t-73 -49t-89 -18.5q-29 0 -47 18.5t-18 47.5z" />
<glyph unicode="~" d="M89 483.5q-5 24.5 9 46.5q57 90 164 107q49 10 99.5 -2t91.5 -43l24 -19q41 -33 94 -22q51 10 80 53q14 23 39 27t47 -10q23 -14 28 -39t-9 -47q-29 -43 -72 -71t-92 -36q-104 -18 -191 45l-24 19q-41 33 -94 22q-51 -10 -80 -53q-14 -23 -39 -28t-47 11q-23 15 -28 39.5 z" />
<glyph unicode="&#xa1;" horiz-adv-x="409" d="M119 856q0 35 25.5 60.5t60.5 25.5t60.5 -25.5t25.5 -60.5t-25.5 -60.5t-60.5 -25.5t-60.5 25.5t-25.5 60.5zM139 -270v819q0 29 19.5 47t46.5 18q29 0 47 -18t18 -47v-819q0 -29 -18.5 -47.5t-46.5 -18.5q-27 0 -46.5 18.5t-19.5 47.5z" />
<glyph unicode="&#xa2;" d="M184 262v410q0 84 45 150.5t121 99.5q10 4 19.5 6t19.5 6v106q0 29 18.5 47.5t47.5 18.5q27 0 46 -18.5t19 -47.5v-106q35 -10 66.5 -26.5t58.5 -45.5q18 -18 18.5 -44.5t-18.5 -47.5q-20 -18 -47 -18t-45 18q-41 41 -96 41h-2h-2q-25 0 -52 -10q-41 -16 -63.5 -51 t-22.5 -78v-410q0 -43 22.5 -77.5t63.5 -51.5q27 -10 52 -10h2h2q55 0 96 41q18 18 45 18t47 -18q18 -20 18.5 -47t-18.5 -45q-27 -29 -58.5 -45.5t-66.5 -26.5v-106q0 -29 -19.5 -47.5t-45.5 -18.5q-29 0 -47.5 18.5t-18.5 47.5v106q-20 2 -39 12q-76 33 -121 99.5 t-45 150.5z" />
<glyph unicode="&#xa3;" d="M74 672q0 29 19.5 47t45.5 18h99v303q0 92 56 165t144 95q90 25 174 -10t131 -114q12 -23 5 -49.5t-29 -41.5q-23 -14 -49.5 -6t-40.5 31q-23 41 -67 59.5t-89 6.5q-47 -12 -75.5 -50.5t-28.5 -85.5v-303h180q29 0 47 -18.5t18 -46.5q0 -29 -18 -47.5t-47 -18.5h-180 v-309q0 -90 -47 -166h391q29 0 47 -18.5t18 -46.5q0 -29 -18.5 -47.5t-46.5 -18.5h-574q-23 0 -41 15.5t-22 39.5q-4 23 8 43.5t35 28.5q53 20 86 66.5t33 103.5v309h-99q-27 0 -46 18.5t-19 47.5z" />
<glyph unicode="&#xa4;" horiz-adv-x="1433" d="M80 322v608q0 2 2 4v2q0 2 2 4v2l248 426q10 20 33 10l743 -370l2 -2h2l248 -181q10 -6 10 -20v-606q0 -16 -14 -23l-123 -61l-248 -125l-125 -62l-2 -2h-2q-2 -2 -6 -2q-6 0 -6 2h-2q-2 0 -4 2l-744 371q-14 7 -14 23zM131 336l694 -346v553l-694 346v-553zM139 940 l701 -350l223 385l-701 348zM295 453v252q0 12 12 22q10 6 25 0l299 -149q14 -8 14 -23v-252q0 -16 -12 -22q-8 -4 -12 -5q-4 0 -13 5l-299 149q-14 7 -14 23zM346 467l250 -125v199l-250 125v-199zM874 -10l74 37v591q0 14 15 23l247 125q8 6 25 -2q10 -6 10 -21l2 -567 l74 37v580l-217 155l-230 -397v-561zM997 51l201 101l-2 550l-199 -98v-553z" />
<glyph unicode="&#xa5;" d="M77 1265.5q9 26.5 34 39.5q23 10 49 1.5t39 -32.5l227 -455l227 455q12 25 38 33t50 -2q25 -12 33 -39t-2 -49l-240 -480h148q29 0 47 -18.5t18 -46.5q0 -29 -18 -47.5t-47 -18.5h-188v-196h188q29 0 47 -18.5t18 -47.5t-18 -47t-47 -18h-188v-222q0 -29 -18.5 -47 t-47.5 -18t-47.5 18.5t-18.5 46.5v222h-172q-29 0 -47 18t-18 47t18.5 47.5t46.5 18.5h172v196h-172q-29 0 -47 18.5t-18 47.5t18.5 47t46.5 18h131l-239 480q-12 22 -3 48.5z" />
<glyph unicode="&#xa6;" horiz-adv-x="425" d="M147 -352v819q0 29 18.5 47t47.5 18t47.5 -18t18.5 -47v-819q0 -29 -18.5 -47.5t-47.5 -18.5t-47.5 18.5t-18.5 47.5zM147 877v819q0 29 18.5 47t47.5 18t47.5 -18.5t18.5 -46.5v-819q0 -29 -18.5 -47.5t-47.5 -18.5t-47.5 18.5t-18.5 47.5z" />
<glyph unicode="&#xa7;" d="M170 758q16 86 78 141q-55 66 -60 158q0 55 22.5 106t65.5 86q41 37 95.5 52.5t109.5 5.5t100.5 -41t73.5 -80q14 -23 7 -49.5t-31 -40.5q-23 -14 -48.5 -6t-39.5 30q-29 47 -84 58q-53 10 -97 -27q-43 -35 -43 -92q4 -57 46 -90l229 -185q55 -43 79.5 -107.5 t10.5 -131.5q-8 -41 -28.5 -77t-49.5 -65q57 -68 58 -157q2 -55 -20.5 -106.5t-65.5 -86.5q-90 -76 -205 -57q-55 10 -100.5 41t-73.5 80q-14 23 -7 49.5t31 40.5q23 12 48.5 5t39.5 -30q29 -47 84 -57q53 -10 97 27q20 16 31.5 40.5t8.5 51.5q0 57 -43 90l-229 182h-2 q-53 45 -77.5 109.5t-10.5 132.5zM297 735q-12 -72 43 -114l164 -132q20 14 33.5 35t17.5 43q6 33 -5 64t-36 51l-164 131q-43 -31 -53 -78z" />
<glyph unicode="&#xa8;" horiz-adv-x="1024" d="M262 1184q0 35 25.5 60.5t60.5 25.5t60.5 -25.5t25.5 -60.5t-25.5 -60.5t-60.5 -25.5t-60.5 25.5t-25.5 60.5zM590 1184q0 35 25.5 60.5t60.5 25.5t60.5 -25.5t25.5 -60.5t-25.5 -60.5t-60.5 -25.5t-60.5 25.5t-25.5 60.5z" />
<glyph unicode="&#xa9;" horiz-adv-x="1470" d="M80 651q0 133 49 252t143 213q92 92 212 141.5t251 49.5q133 0 253 -49.5t212 -141.5q94 -94 143.5 -213t49.5 -252t-49.5 -251.5t-143.5 -213.5q-92 -92 -212 -142t-253 -50q-131 0 -250.5 50t-212.5 142q-94 94 -143 213t-49 252zM205 651q0 -106 40 -203.5t115 -173.5 q76 -76 172.5 -115.5t202.5 -39.5q109 0 205 40t172 115q76 76 116 173.5t40 203.5t-40 202.5t-116 172.5t-172 116t-205 40q-106 0 -202.5 -40t-172.5 -116t-115.5 -172.5t-39.5 -202.5zM510 508v287q0 78 47 138t121 81q74 20 144.5 -10.5t109.5 -96.5q14 -23 7 -47 t-30 -37q-23 -14 -47 -7t-39 30q-16 29 -48 43t-64 4q-35 -10 -55.5 -37t-20.5 -61v-287q0 -35 20.5 -61.5t55.5 -36.5q33 -10 64.5 4t47.5 43q14 23 39 30t47 -8q23 -12 30 -36.5t-7 -47.5q-39 -68 -109.5 -97.5t-144.5 -8.5q-74 20 -121 80.5t-47 138.5z" />
<glyph unicode="&#xaa;" horiz-adv-x="624" d="M111 815q0 41 15 78t43 64.5t64.5 44t79.5 16.5h84v84q0 29 -16 51.5t-45 30.5t-54.5 -3.5t-41.5 -35.5q-12 -23 -35 -29t-45 6q-23 12 -29 36t6 44q35 59 98.5 86t131.5 8q66 -16 107.5 -70.5t41.5 -123.5v-430q0 -25 -17.5 -42.5t-41.5 -17.5h-144q-86 0 -144 58.5 t-58 144.5zM229 815q0 -35 25 -59.5t59 -24.5h84v168h-84q-35 0 -59.5 -24.5t-24.5 -59.5z" />
<glyph unicode="&#xab;" horiz-adv-x="858" d="M106 565q-16 31 0 64l132 237q14 25 39.5 33t50.5 -6q33 -20 32 -57q0 -20 -8 -31q-25 -47 -47 -86l-37 -70q-18 -35 -28 -51q10 -18 29.5 -56t39.5 -75q23 -43 51 -92q8 -14 9 -31q0 -37 -33 -57q-25 -14 -50.5 -6t-39.5 32zM475 565q-16 31 0 64l131 237q14 25 40 33 t50 -6q33 -20 33 -57q0 -20 -8 -31q-25 -47 -47 -86l-37 -70q-18 -35 -29 -51q10 -18 29.5 -56t40.5 -75q23 -43 51 -92q8 -14 8 -31q0 -37 -32 -57q-25 -14 -50.5 -6t-40.5 32z" />
<glyph unicode="&#xac;" d="M115 590q0 29 19.5 47t45.5 18h492q29 0 47 -18.5t18 -46.5v-246q0 -29 -18.5 -47t-46.5 -18q-27 0 -46.5 18t-19.5 47v180h-426q-27 0 -46 18.5t-19 47.5z" />
<glyph unicode="&#xad;" d="M115 590q0 29 18.5 47t46.5 18h492q27 0 46 -18.5t19 -46.5q0 -29 -19.5 -47.5t-45.5 -18.5h-492q-29 0 -47 18.5t-18 47.5z" />
<glyph unicode="&#xae;" horiz-adv-x="1470" d="M80 651q0 133 49 252t143 213q92 92 212 141.5t251 49.5q133 0 253 -49.5t212 -141.5q94 -94 143.5 -213t49.5 -252t-49.5 -251.5t-143.5 -213.5q-92 -92 -212 -142t-253 -50q-131 0 -250.5 50t-212.5 142q-94 94 -143 213t-49 252zM205 651q0 -106 40 -203.5t115 -173.5 q76 -76 172.5 -115.5t202.5 -39.5q109 0 205 40t172 115q76 76 116 173.5t40 203.5t-40 202.5t-116 172.5t-172 116t-205 40q-106 0 -202.5 -40t-172.5 -116t-115.5 -172.5t-39.5 -202.5zM530 344v606q0 27 18.5 44.5t43.5 17.5h164q47 0 88 -17.5t71.5 -48.5t49 -71.5 t18.5 -88.5q0 -68 -35 -121t-92 -81l119 -209q12 -23 6 -47.5t-29 -38.5q-23 -12 -48 -5t-38 29l-141 246h-70v-215q0 -27 -18.5 -45t-44.5 -18q-25 0 -43.5 18t-18.5 45zM655 684h101q43 0 72.5 30.5t29.5 71.5t-29.5 71t-72.5 30h-101v-203z" />
<glyph unicode="&#xaf;" horiz-adv-x="1024" d="M-66 1532q0 29 18.5 47t47.5 18h1024q27 0 46.5 -18t19.5 -47t-19.5 -47.5t-46.5 -18.5h-1024q-29 0 -47.5 18.5t-18.5 47.5z" />
<glyph unicode="&#xb0;" horiz-adv-x="641" d="M78 1061q0 49 19.5 94t52 78t76.5 52.5t96 19.5q49 0 94 -19.5t77.5 -52.5t52 -78t19.5 -94q0 -51 -19.5 -95t-52 -77t-77.5 -52.5t-94 -19.5q-51 0 -95.5 19.5t-77 52.5t-52 77t-19.5 95zM197 1061q0 -53 35.5 -89t89.5 -36q53 0 88.5 36t35.5 89t-35.5 89t-88.5 36 t-89 -36t-36 -89z" />
<glyph unicode="&#xb1;" d="M115 66q0 29 19.5 47t45.5 18h492q29 0 47 -18.5t18 -46.5q0 -29 -18.5 -47.5t-46.5 -18.5h-492q-27 0 -46 18.5t-19 47.5zM115 590q0 29 19.5 47t45.5 18h180v181q0 29 19.5 47t46.5 18q29 0 47.5 -18.5t18.5 -46.5v-181h180q29 0 47 -18.5t18 -46.5q0 -29 -18.5 -47.5 t-46.5 -18.5h-180v-180q0 -29 -18.5 -47t-47.5 -18q-27 0 -46.5 18t-19.5 47v180h-180q-27 0 -46 18.5t-19 47.5z" />
<glyph unicode="&#xb2;" horiz-adv-x="608" d="M111 641q0 16 10 29l246 387q20 29 10 63q-6 33 -39 54q-29 20 -64 10q-33 -8 -53 -39q-12 -23 -34.5 -29t-45.5 6t-29 36t7 44q43 74 125 96q84 18 155 -24q74 -41 93 -127q18 -84 -27 -154q-33 -55 -68 -108q-29 -47 -61.5 -97.5t-56.5 -89.5h159q25 0 42.5 -17 t17.5 -42t-17.5 -42t-42.5 -17h-268q-35 0 -51 30q-8 15 -8 31z" />
<glyph unicode="&#xb3;" horiz-adv-x="606" d="M110.5 717.5q6.5 23.5 28.5 36.5q23 12 45.5 6t34.5 -29q16 -25 42 -36t54 -3q29 8 45.5 30.5t16.5 51.5v41q0 35 -24.5 59.5t-59.5 24.5q-25 0 -42.5 17.5t-17.5 41.5q0 25 17.5 42.5t42.5 17.5q47 0 74 41q23 43 0 86q-27 41 -74 41t-74 -41q-12 -23 -34.5 -29t-45.5 6 t-29 36t7 44q29 47 76 75t100 28t100 -28t74 -75q29 -47 29 -100t-29 -101q-12 -25 -31 -43q29 -29 44.5 -65.5t15.5 -77.5v-41q0 -70 -42 -124t-108 -70q-68 -18 -131 8t-98 86q-13 20 -6.5 43.5z" />
<glyph unicode="&#xb4;" horiz-adv-x="1024" d="M345 1106q1 27 22 45l204 184q20 18 47 16.5t46 -22.5q18 -20 17 -47t-22 -45l-204 -184q-20 -18 -48 -17.5t-45 23.5q-18 20 -17 47z" />
<glyph unicode="&#xb5;" horiz-adv-x="819" d="M143 -352v1229q0 27 17.5 44t44.5 17t44 -17.5t17 -43.5v-615q0 -59 42 -101t102 -42q59 0 101 42t42 101v615q0 27 17.5 44t43.5 17q27 0 44.5 -17.5t17.5 -43.5v-820q0 -27 -17.5 -44t-44.5 -17q-23 0 -38 12t-21 31q-66 -43 -145 -43q-80 0 -144 41v-389 q0 -27 -17.5 -44.5t-43.5 -17.5q-27 0 -44.5 17.5t-17.5 44.5z" />
<glyph unicode="&#xb6;" horiz-adv-x="983" d="M70 991q0 63 24.5 119.5t65.5 97.5t97 65.5t120 24.5h512q27 0 45 -17t18 -44t-18.5 -45t-44.5 -18h-80v-1280q0 -27 -18.5 -45.5t-45.5 -18.5t-44 18.5t-17 45.5v1280h-162v-1280q0 -27 -18.5 -45.5t-44.5 -18.5q-27 0 -44.5 18.5t-17.5 45.5v788h-20q-63 0 -119.5 24.5 t-97.5 66.5t-65.5 98.5t-24.5 119.5zM195 991q0 -76 53 -130t129 -54h20v367h-20q-76 0 -129 -53.5t-53 -129.5z" />
<glyph unicode="&#xb7;" horiz-adv-x="393" d="M111 795q0 35 25.5 60.5t60.5 25.5t60.5 -26t25.5 -60q0 -35 -26 -60.5t-60 -25.5q-35 0 -60.5 25.5t-25.5 60.5z" />
<glyph unicode="&#xb8;" horiz-adv-x="1024" d="M372 -193.5q7 25.5 29 39.5q49 29 50 86v125q0 29 18 47.5t47 18.5t47.5 -18.5t18.5 -47.5v-125q0 -61 -31 -114.5t-84 -83.5q-23 -14 -49.5 -7t-40.5 29q-12 25 -5 50.5z" />
<glyph unicode="&#xb9;" horiz-adv-x="479" d="M55 1062.5q0 24.5 17 43.5l182 180q25 29 63 14q37 -16 37 -55v-614q0 -25 -17.5 -42.5t-41.5 -17.5q-25 0 -42 17.5t-17 42.5v473q-16 -16 -31 -31.5t-25 -25.5q-12 -14 -24 -25q-18 -16 -43 -16t-41 16q-17 16 -17 40.5z" />
<glyph unicode="&#xba;" horiz-adv-x="624" d="M111 815v287q0 41 15 78t43 64.5t64.5 44t79.5 16.5q41 0 78 -16.5t64.5 -44t44 -64.5t16.5 -78v-287q0 -43 -16.5 -80t-44 -64.5t-64.5 -43t-78 -15.5q-86 0 -144 58.5t-58 144.5zM229 815q0 -35 25 -59.5t59 -24.5q35 0 59.5 24.5t24.5 59.5v287q0 35 -24.5 59.5 t-59.5 24.5t-59.5 -24.5t-24.5 -59.5v-287z" />
<glyph unicode="&#xbb;" horiz-adv-x="858" d="M121 344q0 10 8 31q29 49 51 92q20 37 41 75t31 56q-10 16 -29.5 51t-38.5 70q-23 39 -47 86q-8 16 -8 31q0 39 35 57q23 14 49.5 6t38.5 -33l131 -237q18 -33 0 -64l-139 -252q-12 -25 -39 -33t-49 7q-35 18 -35 57zM489 344q0 10 9 31q29 49 51 92q20 37 40.5 75 t31.5 56q-10 16 -30 51t-38 70q-23 39 -47 86q-8 16 -8 31q0 39 34 57q23 14 49.5 6t39.5 -33l131 -237q18 -33 0 -64l-140 -252q-12 -25 -38.5 -33t-49.5 7q-35 18 -35 57z" />
<glyph unicode="&#xbc;" horiz-adv-x="1224" d="M55 1062.5q0 24.5 17 43.5l182 180q25 29 63 14q37 -16 37 -55v-614q0 -25 -17.5 -42.5t-41.5 -17.5q-25 0 -42 17.5t-17 42.5v473q-16 -16 -31 -31.5t-25 -25.5q-12 -14 -24 -25q-18 -16 -43 -16t-41 16q-17 16 -17 40.5zM232.5 35.5q-9.5 25.5 3.5 50.5l573 1188 q12 25 37.5 33t50.5 -2q25 -12 33 -38t-2 -50l-574 -1188q-12 -25 -37.5 -34t-50.5 3q-24 12 -33.5 37.5zM672 244l182 450q10 23 32.5 33t45.5 0q37 -16 37 -55q0 -6 -1 -11.5t-3 -11.5q-31 -76 -60 -143q-25 -59 -50.5 -121.5t-41.5 -103.5h119v63q0 25 17.5 42t41.5 17 q25 0 42.5 -17t17.5 -42v-63h47q25 0 42 -17.5t17 -42.5t-17.5 -42t-41.5 -17h-47v-105q0 -25 -17.5 -42t-42.5 -17t-42 17.5t-17 41.5v105h-205q-33 0 -49 26q-18 27 -6 56z" />
<glyph unicode="&#xbd;" horiz-adv-x="1220" d="M55 1062.5q0 24.5 17 43.5l182 180q25 29 63 14q37 -16 37 -55v-614q0 -25 -17.5 -42.5t-41.5 -17.5q-25 0 -42 17.5t-17 42.5v473q-16 -16 -31 -31.5t-25 -25.5q-12 -14 -24 -25q-18 -16 -43 -16t-41 16q-17 16 -17 40.5zM232.5 35.5q-9.5 25.5 3.5 50.5l573 1188 q12 25 37.5 33t50.5 -2q25 -12 33 -38t-2 -50l-574 -1188q-12 -25 -37.5 -34t-50.5 3q-24 12 -33.5 37.5zM766 67.5q0 16.5 10 28.5l246 387q20 29 10 64q-6 33 -39 53q-29 20 -63 10q-33 -8 -53 -39q-12 -23 -35 -28.5t-45 6.5q-23 12 -29 35.5t6 44.5q43 74 125 96 q84 18 156 -25q74 -41 92 -127q18 -84 -27 -153q-33 -55 -67 -109q-29 -47 -62 -97t-57 -89h160q25 0 42 -17.5t17 -41.5q0 -25 -17.5 -42.5t-41.5 -17.5h-269q-35 0 -51 31q-8 14 -8 30.5z" />
<glyph unicode="&#xbe;" horiz-adv-x="1286" d="M72 717.5q6 23.5 28 36.5q23 12 45.5 6t34.5 -29q16 -25 42 -36t54 -3q29 8 45.5 30.5t16.5 51.5v41q0 35 -24.5 59.5t-59.5 24.5q-25 0 -42 17.5t-17 41.5q0 25 17 42.5t42 17.5q47 0 74 41q23 43 0 86q-27 41 -74 41t-74 -41q-12 -23 -34.5 -29t-45.5 6t-28.5 36 t6.5 44q29 47 76 75t100 28t100 -28t74 -75q29 -47 29 -100t-29 -101q-12 -25 -31 -43q29 -29 44.5 -65.5t15.5 -77.5v-41q0 -70 -42 -124t-108 -70q-68 -18 -131 8t-98 86q-12 20 -6 43.5zM294 35.5q-9 25.5 3 50.5l573 1188q12 25 38 33t50 -2q25 -12 33 -38t-2 -50 l-573 -1188q-12 -25 -38 -34t-50 3q-25 12 -34 37.5zM733 244l182 450q10 23 33 33t45 0q37 -16 37 -55q0 -6 -1 -11.5t-3 -11.5q-31 -76 -59 -143q-25 -59 -50.5 -121.5t-42.5 -103.5h119v63q0 25 17.5 42t42.5 17t42 -17t17 -42v-63h47q25 0 42.5 -17.5t17.5 -42.5 t-17.5 -42t-42.5 -17h-47v-105q0 -25 -17.5 -42t-41.5 -17q-25 0 -42.5 17.5t-17.5 41.5v105h-205q-33 0 -49 26q-18 27 -6 56z" />
<glyph unicode="&#xbf;" horiz-adv-x="731" d="M84 -88q-4 68 18.5 131t69.5 111l104 104q51 55 52 127v164q0 29 19.5 47t45.5 18q29 0 47.5 -18t18.5 -47v-164q0 -61 -22.5 -117.5t-67.5 -101.5l-103 -105q-57 -57 -51 -139q4 -82 70 -131t145 -33q37 8 68.5 30t52.5 56q12 23 38.5 30t49.5 -5q25 -14 32 -41t-7 -49 q-35 -59 -89.5 -98t-119.5 -52q-66 -14 -131.5 1.5t-118.5 56.5t-85 100t-36 125zM307 856q0 35 25.5 60.5t60.5 25.5t60.5 -25.5t25.5 -60.5t-25.5 -60.5t-60.5 -25.5t-60.5 25.5t-25.5 60.5z" />
<glyph unicode="&#xc0;" horiz-adv-x="884" d="M51 74l328 1188q6 23 23.5 36t39.5 13q23 0 40.5 -13.5t23.5 -35.5l328 -1188q8 -27 -5.5 -49.5t-42.5 -30.5q-27 -8 -49 5t-30 40q-8 31 -19 67q-10 33 -21.5 76t-25.5 97h-397q-16 -53 -26.5 -96.5t-20.5 -76.5q-10 -37 -19 -67q-8 -27 -30.5 -40t-51.5 -5 q-27 8 -40 30.5t-5 49.5zM273 1691.5q-1 26.5 18 47.5q18 20 44.5 22t47.5 -16l205 -184q20 -18 22 -45t-16 -48q-18 -23 -45 -23.5t-47 17.5l-205 185q-23 18 -24 44.5zM281 410h323q-20 76 -42.5 156.5t-44 158.5t-41 148.5t-34.5 125.5q-16 -55 -34.5 -125.5t-40 -148.5 t-44 -158.5t-42.5 -156.5z" />
<glyph unicode="&#xc1;" horiz-adv-x="884" d="M51 74l328 1188q6 23 23.5 36t39.5 13q23 0 40.5 -13.5t23.5 -35.5l328 -1188q8 -27 -5.5 -49.5t-42.5 -30.5q-27 -8 -49 5t-30 40q-8 31 -19 67q-10 33 -21.5 76t-25.5 97h-397q-16 -53 -26.5 -96.5t-20.5 -76.5q-10 -37 -19 -67q-8 -27 -30.5 -40t-51.5 -5 q-27 8 -40 30.5t-5 49.5zM273 1515.5q1 26.5 24 45.5l205 184q20 18 46.5 16t45.5 -22q18 -20 17 -47t-23 -45l-205 -185q-20 -18 -47 -17t-45 23q-19 21 -18 47.5zM281 410h323q-20 76 -42.5 156.5t-44 158.5t-41 148.5t-34.5 125.5q-16 -55 -34.5 -125.5t-40 -148.5 t-44 -158.5t-42.5 -156.5z" />
<glyph unicode="&#xc2;" horiz-adv-x="884" d="M51 74l328 1188q6 23 23.5 36t39.5 13q23 0 40.5 -13.5t23.5 -35.5l328 -1188q8 -27 -5.5 -49.5t-42.5 -30.5q-27 -8 -49 5t-30 40q-8 31 -19 67q-10 33 -21.5 76t-25.5 97h-397q-16 -53 -26.5 -96.5t-20.5 -76.5q-10 -37 -19 -67q-8 -27 -30.5 -40t-51.5 -5 q-27 8 -40 30.5t-5 49.5zM196 1519.5q3 24.5 23 41.5l184 143q16 14 39 14t39 -14l185 -143q20 -16 23 -41t-13 -47q-16 -20 -41 -23.5t-47 12.5q-29 20 -56 43q-23 16 -47 36t-43 34q-18 -14 -42.5 -33.5t-47.5 -36.5q-27 -23 -55 -43q-20 -16 -46 -13t-42 24 q-16 22 -13 46.5zM281 410h323q-20 76 -42.5 156.5t-44 158.5t-41 148.5t-34.5 125.5q-16 -55 -34.5 -125.5t-40 -148.5t-44 -158.5t-42.5 -156.5z" />
<glyph unicode="&#xc3;" horiz-adv-x="884" d="M51 74l328 1188q6 23 23.5 36t39.5 13q23 0 40.5 -13.5t23.5 -35.5l328 -1188q8 -27 -5.5 -49.5t-42.5 -30.5q-27 -8 -49 5t-30 40q-8 31 -19 67q-10 33 -21.5 76t-25.5 97h-397q-16 -53 -26.5 -96.5t-20.5 -76.5q-10 -37 -19 -67q-8 -27 -30.5 -40t-51.5 -5 q-27 8 -40 30.5t-5 49.5zM197 1556.5q-4 24.5 10 47.5q45 68 123 79q37 6 74.5 -3t68.5 -31l16 -13q20 -16 46 -10q25 2 40 27q14 23 39 28t48 -12q23 -14 27.5 -38.5t-9.5 -47.5q-45 -68 -123 -80q-80 -12 -143 35l-17 12q-23 12 -47 11q-25 -4 -39 -27q-16 -23 -40.5 -28 t-47.5 12q-22 14 -26 38.5zM281 410h323q-20 76 -42.5 156.5t-44 158.5t-41 148.5t-34.5 125.5q-16 -55 -34.5 -125.5t-40 -148.5t-44 -158.5t-42.5 -156.5z" />
<glyph unicode="&#xc4;" horiz-adv-x="884" d="M51 74l328 1188q6 23 23.5 36t39.5 13q23 0 40.5 -13.5t23.5 -35.5l328 -1188q8 -27 -5.5 -49.5t-42.5 -30.5q-27 -8 -49 5t-30 40q-8 31 -19 67q-10 33 -21.5 76t-25.5 97h-397q-16 -53 -26.5 -96.5t-20.5 -76.5q-10 -37 -19 -67q-8 -27 -30.5 -40t-51.5 -5 q-27 8 -40 30.5t-5 49.5zM193 1593q0 35 25.5 60.5t60.5 25.5t60.5 -25.5t25.5 -60.5t-26 -60.5t-60 -25.5q-35 0 -60.5 25.5t-25.5 60.5zM281 410h323q-20 76 -42.5 156.5t-44 158.5t-41 148.5t-34.5 125.5q-16 -55 -34.5 -125.5t-40 -148.5t-44 -158.5t-42.5 -156.5z M520 1593q0 35 25.5 60.5t60.5 25.5t60.5 -25.5t25.5 -60.5t-25.5 -60.5t-60.5 -25.5t-60.5 25.5t-25.5 60.5z" />
<glyph unicode="&#xc5;" horiz-adv-x="884" d="M51 74l328 1188q6 23 23.5 36t39.5 13q23 0 40.5 -13.5t23.5 -35.5l328 -1188q8 -27 -5.5 -49.5t-42.5 -30.5q-27 -8 -49 5t-30 40q-8 31 -19 67q-10 33 -21.5 76t-25.5 97h-397q-16 -53 -26.5 -96.5t-20.5 -76.5q-10 -37 -19 -67q-8 -27 -30.5 -40t-51.5 -5 q-27 8 -40 30.5t-5 49.5zM268 1614q0 72 51.5 123t122.5 51q74 0 125 -51t51 -123q0 -37 -13 -69t-37.5 -55.5t-56.5 -37.5t-69 -14t-68.5 14t-55 37.5t-37 55.5t-13.5 69zM281 410h323q-20 76 -42.5 156.5t-44 158.5t-41 148.5t-34.5 125.5q-16 -55 -34.5 -125.5 t-40 -148.5t-44 -158.5t-42.5 -156.5zM373 1614q0 -29 20.5 -50.5t48.5 -21.5q29 0 50.5 21.5t21.5 50.5t-21.5 49t-50.5 20t-49 -20t-20 -49z" />
<glyph unicode="&#xc6;" horiz-adv-x="1263" d="M38 33.5q-9 25.5 1 50.5l528 1180q16 39 62 39h493q29 0 47.5 -18.5t18.5 -47.5t-18.5 -47.5t-47.5 -18.5h-344v-434h303q29 0 47.5 -18.5t18.5 -46.5q0 -29 -18.5 -47.5t-47.5 -18.5h-303v-475h344q29 0 47.5 -18.5t18.5 -46.5q0 -29 -18.5 -47.5t-47.5 -18.5h-409 q-27 0 -46.5 18.5t-19.5 47.5v213h-377q-25 -55 -45 -100.5t-35 -78.5q-18 -37 -30 -69q-12 -25 -38 -34t-50 1q-25 10 -34 35.5zM330 410h317v712q-20 -47 -56 -127t-79 -177t-91 -203.5t-91 -204.5z" />
<glyph unicode="&#xc7;" horiz-adv-x="806" d="M115 303v696q0 106 63.5 189.5t165.5 111.5q51 14 102.5 10.5t97.5 -23t85 -53.5t65 -79l21 -35q14 -25 7 -50.5t-32 -39.5q-23 -14 -48.5 -7t-39.5 32l-20 35q-31 53 -87.5 76.5t-115.5 7.5t-96 -64.5t-37 -110.5v-696q0 -61 36.5 -109.5t96.5 -64.5q59 -16 115.5 7.5 t87.5 76.5l20 35q14 25 40 32t48 -8q25 -14 32 -39.5t-7 -50.5l-21 -35q-35 -59 -88 -97t-114 -52v-70q0 -61 -32 -114.5t-85 -83.5q-23 -14 -48.5 -7t-39.5 29q-14 25 -7 50.5t31 39.5q23 14 36 37t13 49v70q-4 2 -8 2t-8 2q-102 29 -165.5 112t-63.5 189z" />
<glyph unicode="&#xc8;" horiz-adv-x="753" d="M139 66v1171q0 29 18.5 47.5t47.5 18.5h409q27 0 46.5 -18.5t19.5 -47.5t-19.5 -47.5t-46.5 -18.5h-344v-434h303q27 0 46.5 -18.5t19.5 -46.5q0 -29 -19.5 -47.5t-46.5 -18.5h-303v-475h344q27 0 46.5 -18.5t19.5 -46.5q0 -29 -19.5 -47.5t-46.5 -18.5h-409 q-29 0 -47.5 18.5t-18.5 47.5zM241 1691.5q-1 26.5 17 47.5q18 20 45 22t47 -16l205 -184q20 -18 21.5 -45t-17.5 -48q-16 -23 -44 -23.5t-48 17.5l-205 185q-20 18 -21 44.5z" />
<glyph unicode="&#xc9;" horiz-adv-x="753" d="M139 66v1171q0 29 18.5 47.5t47.5 18.5h409q27 0 46.5 -18.5t19.5 -47.5t-19.5 -47.5t-46.5 -18.5h-344v-434h303q27 0 46.5 -18.5t19.5 -46.5q0 -29 -19.5 -47.5t-46.5 -18.5h-303v-475h344q27 0 46.5 -18.5t19.5 -46.5q0 -29 -19.5 -47.5t-46.5 -18.5h-409 q-29 0 -47.5 18.5t-18.5 47.5zM241 1515.5q1 26.5 21 45.5l205 184q20 18 48 16t44 -22q18 -20 17 -47t-21 -45l-205 -185q-20 -18 -47 -17t-45 23q-18 21 -17 47.5z" />
<glyph unicode="&#xca;" horiz-adv-x="753" d="M139 66v1171q0 29 18.5 47.5t47.5 18.5h409q27 0 46.5 -18.5t19.5 -47.5t-19.5 -47.5t-46.5 -18.5h-344v-434h303q27 0 46.5 -18.5t19.5 -46.5q0 -29 -19.5 -47.5t-46.5 -18.5h-303v-475h344q27 0 46.5 -18.5t19.5 -46.5q0 -29 -19.5 -47.5t-46.5 -18.5h-409 q-29 0 -47.5 18.5t-18.5 47.5zM163 1519.5q3 24.5 23 41.5l185 143q16 14 37.5 14t37.5 -14l185 -143q23 -16 25.5 -41t-13.5 -47q-16 -20 -42 -23.5t-46 12.5q-29 20 -55 43q-23 16 -48.5 36t-41.5 34q-18 -14 -44 -33.5t-49 -36.5q-27 -23 -55 -43q-20 -16 -44.5 -13 t-41.5 24q-16 22 -13 46.5z" />
<glyph unicode="&#xcb;" horiz-adv-x="753" d="M139 66v1171q0 29 18.5 47.5t47.5 18.5h409q29 0 47.5 -18.5t18.5 -47.5t-18.5 -47.5t-47.5 -18.5h-344v-434h303q29 0 47.5 -18.5t18.5 -46.5q0 -29 -18.5 -47.5t-47.5 -18.5h-303v-475h344q29 0 47.5 -18.5t18.5 -46.5q0 -29 -18.5 -47.5t-47.5 -18.5h-409 q-29 0 -47.5 18.5t-18.5 47.5zM160 1593q0 35 25.5 60.5t60.5 25.5t60.5 -25.5t25.5 -60.5t-25.5 -60.5t-60.5 -25.5t-60.5 25.5t-25.5 60.5zM487 1593q0 35 26 60.5t60 25.5q35 0 60.5 -25.5t25.5 -60.5t-25.5 -60.5t-60.5 -25.5t-60.5 25.5t-25.5 60.5z" />
<glyph unicode="&#xcc;" horiz-adv-x="409" d="M36 1691.5q-1 26.5 17 47.5q18 20 45 22t47 -16l205 -184q20 -18 22.5 -45t-16.5 -48q-18 -23 -44.5 -23.5t-47.5 17.5l-205 185q-22 18 -23 44.5zM139 57v1188q0 29 18.5 47.5t47.5 18.5t47 -18.5t18 -47.5v-1188q0 -29 -18.5 -47t-46.5 -18q-29 0 -47.5 18t-18.5 47z " />
<glyph unicode="&#xcd;" horiz-adv-x="409" d="M36 1515.5q1 26.5 23 45.5l205 184q20 18 47 16t45 -22t16.5 -47t-22.5 -45l-205 -185q-20 -18 -46.5 -17t-45.5 23q-18 21 -17 47.5zM139 57v1188q0 29 18.5 47.5t47.5 18.5t47 -18.5t18 -47.5v-1188q0 -29 -18.5 -47t-46.5 -18q-29 0 -47.5 18t-18.5 47z" />
<glyph unicode="&#xce;" horiz-adv-x="409" d="M-42 1519.5q3 24.5 24 41.5l184 143q16 14 38.5 14t39.5 -14l184 -143q20 -16 23.5 -41t-13.5 -47q-16 -20 -40.5 -23.5t-47.5 12.5q-29 20 -55 43q-23 16 -48.5 36t-41.5 34q-18 -14 -44 -33.5t-48 -36.5q-27 -23 -54 -43q-23 -16 -47 -13t-41 24q-16 22 -13 46.5z M139 57v1188q0 29 18.5 47.5t47.5 18.5t47 -18.5t18 -47.5v-1188q0 -29 -18.5 -47t-46.5 -18q-29 0 -47.5 18t-18.5 47z" />
<glyph unicode="&#xcf;" horiz-adv-x="409" d="M-45 1593q0 35 25.5 60.5t60.5 25.5t60.5 -25.5t25.5 -60.5t-25.5 -60.5t-60.5 -25.5t-60.5 25.5t-25.5 60.5zM139 57v1188q0 29 18.5 47.5t47.5 18.5t47 -18.5t18 -47.5v-1188q0 -29 -18.5 -47t-46.5 -18q-29 0 -47.5 18t-18.5 47zM283 1593q0 35 25.5 60.5t60.5 25.5 t60.5 -25.5t25.5 -60.5t-26 -60.5t-60 -25.5q-35 0 -60.5 25.5t-25.5 60.5z" />
<glyph unicode="&#xd0;" horiz-adv-x="903" d="M6 672q0 27 18.5 44t43.5 17h98v504q0 29 19.5 47.5t45.5 18.5h246q63 0 120.5 -25t99.5 -67t66.5 -99t24.5 -121v-680q0 -66 -24.5 -122t-66.5 -98t-99 -66.5t-121 -24.5h-246q-27 0 -46 18.5t-19 47.5v542h-98q-25 0 -43.5 18.5t-18.5 45.5zM297 131h180q76 0 128 52.5 t52 127.5v680q0 74 -52 127t-128 53h-180v-438h139q27 0 45.5 -17.5t18.5 -43.5q0 -27 -18.5 -45.5t-45.5 -18.5h-139v-477z" />
<glyph unicode="&#xd1;" horiz-adv-x="983" d="M139 57v1188q0 23 14.5 41.5t36.5 22.5q23 4 43.5 -5.5t30.5 -29.5q86 -176 168 -346q35 -72 72 -150t73.5 -154.5t71.5 -148.5t64 -131v901q0 29 19.5 47.5t45.5 18.5q29 0 47.5 -18.5t18.5 -47.5v-1188q0 -23 -14.5 -41t-36.5 -22q-23 -6 -43.5 4t-30.5 31 q-84 176 -166 346q-35 72 -73 149.5t-74.5 154.5t-71.5 148.5t-64 130.5v-901q0 -29 -18.5 -47t-46.5 -18q-27 0 -46.5 18t-19.5 47zM245 1556.5q-5 24.5 11 47.5q41 68 123 79q37 6 75 -3t66 -31l17 -13q23 -16 47 -10q25 2 41 27q14 23 38.5 28t47.5 -12 q23 -14 27.5 -38.5t-9.5 -47.5q-45 -68 -123 -80q-80 -12 -143 35l-17 12q-23 12 -47 11q-25 -4 -39 -27q-16 -23 -40.5 -28t-47.5 12q-22 14 -27 38.5z" />
<glyph unicode="&#xd2;" d="M115 303v696q0 63 24.5 121t66.5 100t98 66.5t122 24.5q63 0 120.5 -24.5t99.5 -66.5t66.5 -99.5t24.5 -121.5v-696q0 -66 -24.5 -122t-66.5 -98t-99.5 -66.5t-120.5 -24.5q-66 0 -122 24.5t-98 66.5t-66.5 98t-24.5 122zM246 303q0 -76 53 -128t127 -52q76 0 128 52 t52 128v696q0 74 -52 127.5t-128 53.5q-37 0 -69.5 -14.5t-57.5 -39t-39 -57.5t-14 -70v-696zM259 1691.5q-1 26.5 15 47.5q18 20 46 22t49 -16l204 -184q20 -18 21.5 -45t-16.5 -48q-18 -23 -45 -23.5t-48 17.5l-204 185q-21 18 -22 44.5z" />
<glyph unicode="&#xd3;" d="M115 303v696q0 63 24.5 121t67.5 100t99 66.5t120 24.5q63 0 120.5 -24.5t99.5 -66.5t66.5 -99.5t24.5 -121.5v-696q0 -66 -24.5 -122t-66.5 -98t-99.5 -66.5t-120.5 -24.5t-119.5 24.5t-99.5 66.5t-67.5 98t-24.5 122zM246 303q0 -76 53 -128t127 -52q76 0 128 52 t52 128v696q0 74 -52 127.5t-128 53.5q-37 0 -69.5 -14.5t-57.5 -39t-39 -57.5t-14 -70v-696zM259 1515.5q1 26.5 22 45.5l204 184q20 18 47 16t46 -22q18 -20 17 -47t-22 -45l-204 -185q-20 -18 -48 -17t-45 23q-18 21 -17 47.5z" />
<glyph unicode="&#xd4;" d="M115 303v696q0 63 24.5 121t67.5 100t99 66.5t120 24.5q63 0 120.5 -24.5t99.5 -66.5t66.5 -99.5t24.5 -121.5v-696q0 -66 -24.5 -122t-66.5 -98t-99.5 -66.5t-120.5 -24.5t-119.5 24.5t-99.5 66.5t-67.5 98t-24.5 122zM179 1519.5q3 24.5 26 41.5l184 143q16 14 38 14 t38 -14l184 -143q23 -16 26 -41t-13 -47q-16 -20 -42 -23.5t-47 12.5q-29 20 -55 43q-23 16 -48.5 36t-43.5 34q-18 -14 -43 -33.5t-47 -36.5q-27 -23 -55 -43q-20 -16 -46 -13t-42 24q-17 22 -14 46.5zM246 303q0 -76 53 -128t127 -52q76 0 128 52t52 128v696 q0 74 -52 127.5t-128 53.5q-37 0 -69.5 -14.5t-57.5 -39t-39 -57.5t-14 -70v-696z" />
<glyph unicode="&#xd5;" d="M115 303v696q0 63 24.5 121t66.5 100t98 66.5t122 24.5q63 0 119.5 -24.5t99.5 -66.5t67.5 -99.5t24.5 -121.5v-696q0 -66 -24.5 -122t-67.5 -98t-99.5 -66.5t-119.5 -24.5q-66 0 -122 24.5t-98 66.5t-66.5 98t-24.5 122zM179 1556.5q-5 24.5 9 47.5q45 68 123 79 q80 12 144 -34l16 -13q23 -16 47 -10q25 4 39 27q16 23 41 28t47 -12q23 -14 27 -38.5t-10 -47.5q-45 -68 -123 -80q-37 -6 -75 3.5t-69 31.5l-16 12q-20 14 -45 11q-25 -2 -41 -27q-14 -23 -39 -28t-47 12q-23 14 -28 38.5zM246 303q0 -76 52 -128t128 -52q74 0 127 52 t53 128v696q0 37 -14 70t-39 57.5t-57.5 39t-69.5 14.5q-76 0 -128 -53.5t-52 -127.5v-696z" />
<glyph unicode="&#xd6;" d="M115 303v696q0 63 24.5 121t66.5 100t98 66.5t122 24.5q63 0 119.5 -24.5t99.5 -66.5t67.5 -99.5t24.5 -121.5v-696q0 -66 -24.5 -122t-67.5 -98t-99.5 -66.5t-119.5 -24.5q-66 0 -122 24.5t-98 66.5t-66.5 98t-24.5 122zM176 1593q0 35 24.5 60.5t61.5 25.5 q35 0 60.5 -25.5t25.5 -60.5t-25.5 -60.5t-60.5 -25.5q-37 0 -61.5 25.5t-24.5 60.5zM246 303q0 -76 52 -128t128 -52q74 0 127 52t53 128v696q0 37 -14 70t-39 57.5t-57.5 39t-69.5 14.5q-76 0 -128 -53.5t-52 -127.5v-696zM504 1593q0 35 24.5 60.5t61.5 25.5 q35 0 60.5 -25.5t25.5 -60.5t-25.5 -60.5t-60.5 -25.5q-37 0 -61.5 25.5t-24.5 60.5z" />
<glyph unicode="&#xd7;" d="M156 385q0 27 18 47l160 158l-160 158q-18 20 -18 46.5t18 47.5q20 18 47 18t47 -18l158 -160l158 160q20 18 46.5 18t47.5 -18q18 -20 18 -47t-18 -47l-160 -158l160 -158q18 -20 18 -47t-18 -47q-20 -18 -47 -18.5t-47 18.5l-158 160l-158 -160q-20 -18 -46.5 -18.5 t-47.5 18.5q-18 20 -18 47z" />
<glyph unicode="&#xd8;" horiz-adv-x="872" d="M7 -42q-7 26 5 48l121 221q-8 33 -8 76v696q0 63 24.5 121t66.5 100t98.5 66.5t121.5 24.5q70 0 129.5 -29t102.5 -76l82 152q12 23 36.5 30t47.5 -6q23 -12 30.5 -37.5t-4.5 -48.5l-123 -221q10 -41 11 -76v-696q0 -66 -25 -122t-67 -98t-99 -66.5t-121 -24.5 q-70 0 -130 28.5t-101 75.5l-82 -151q-14 -23 -39 -30t-47 5q-23 12 -30 38zM256 451l342 628q-23 45 -66 73t-96 28q-76 0 -128 -53.5t-52 -127.5v-548zM274 223q23 -45 66 -72.5t96 -27.5q74 0 127 52t53 128v549z" />
<glyph unicode="&#xd9;" horiz-adv-x="868" d="M123 303v942q0 29 18.5 47.5t46.5 18.5q29 0 47.5 -18.5t18.5 -47.5v-942q0 -76 52 -128t128 -52q74 0 127 52t53 128v942q0 29 18.5 47.5t47.5 18.5t47 -18.5t18 -47.5v-942q0 -66 -24.5 -122t-66.5 -98t-99 -66.5t-121 -24.5q-66 0 -122 24.5t-98 66.5t-66.5 98 t-24.5 122zM265 1691.5q-1 26.5 18 47.5q18 20 44.5 22t47.5 -16l205 -184q20 -18 21 -45t-15 -48q-18 -23 -45 -23.5t-49 17.5l-205 185q-21 18 -22 44.5z" />
<glyph unicode="&#xda;" horiz-adv-x="868" d="M123 303v942q0 29 18.5 47.5t46.5 18.5q29 0 47.5 -18.5t18.5 -47.5v-942q0 -76 52 -128t128 -52q74 0 127 52t53 128v942q0 29 18.5 47.5t47.5 18.5t47 -18.5t18 -47.5v-942q0 -66 -24.5 -122t-66.5 -98t-99 -66.5t-121 -24.5q-66 0 -122 24.5t-98 66.5t-66.5 98 t-24.5 122zM265 1515.5q1 26.5 24 45.5l205 184q20 18 46.5 16t45.5 -22q18 -20 16 -47t-22 -45l-205 -185q-20 -18 -47 -17t-45 23q-19 21 -18 47.5z" />
<glyph unicode="&#xdb;" horiz-adv-x="868" d="M123 303v942q0 29 19.5 47.5t45.5 18.5q29 0 47.5 -18.5t18.5 -47.5v-942q0 -76 53 -128t127 -52q76 0 128 52t52 128v942q0 29 19.5 47.5t46.5 18.5q29 0 47 -18.5t18 -47.5v-942q0 -66 -24.5 -122t-66.5 -98t-99 -66.5t-121 -24.5q-63 0 -119.5 24.5t-99.5 66.5 t-67.5 98t-24.5 122zM187 1519.5q3 24.5 26 41.5l184 143q16 14 38 14t38 -14l184 -143q20 -16 23.5 -41t-12.5 -47q-16 -20 -41 -23.5t-45 12.5q-29 20 -56 43q-23 16 -48 36t-44 34q-18 -14 -42.5 -33.5t-47.5 -36.5q-27 -23 -55 -43q-20 -16 -46 -13t-42 24 q-17 22 -14 46.5z" />
<glyph unicode="&#xdc;" horiz-adv-x="868" d="M123 303v942q0 29 19.5 47.5t45.5 18.5q29 0 47.5 -18.5t18.5 -47.5v-942q0 -76 53 -128t127 -52q76 0 128 52t52 128v942q0 29 19.5 47.5t46.5 18.5q29 0 47 -18.5t18 -47.5v-942q0 -66 -24.5 -122t-66.5 -98t-99 -66.5t-121 -24.5q-63 0 -119.5 24.5t-99.5 66.5 t-67.5 98t-24.5 122zM184 1593q0 35 26 60.5t60 25.5q37 0 61.5 -25.5t24.5 -60.5t-24.5 -60.5t-61.5 -25.5q-35 0 -60.5 25.5t-25.5 60.5zM512 1593q0 35 25.5 60.5t60.5 25.5q37 0 61.5 -25.5t24.5 -60.5t-24.5 -60.5t-61.5 -25.5q-35 0 -60.5 25.5t-25.5 60.5z" />
<glyph unicode="&#xdd;" horiz-adv-x="823" d="M63.5 1265.5q8.5 26.5 32.5 39.5q25 10 50.5 1.5t37.5 -32.5l228 -455q29 55 66.5 133t74.5 150q41 82 88 172q12 25 38 33t50 -2q23 -12 32 -39t-3 -49l-281 -562v-598q0 -29 -18.5 -47t-46.5 -18q-27 0 -46.5 18.5t-19.5 46.5v598l-278 562q-13 22 -4.5 48.5z M245 1515.5q1 26.5 21 45.5l205 184q20 18 47 16t45 -22t17.5 -47t-21.5 -45l-205 -185q-23 -18 -49 -17t-45 23q-16 21 -15 47.5z" />
<glyph unicode="&#xde;" horiz-adv-x="819" d="M139 57v1180q0 29 18.5 47.5t47.5 18.5q27 0 46 -18.5t19 -47.5v-193h181q63 0 119.5 -24.5t99.5 -66.5t67.5 -99t24.5 -121v-123q0 -66 -24.5 -122t-67.5 -98t-99.5 -66.5t-119.5 -24.5h-181v-242q0 -29 -19.5 -47t-45.5 -18q-29 0 -47.5 18t-18.5 47zM270 430h181 q74 0 127 52.5t53 127.5v123q0 37 -14.5 70t-39 57.5t-57.5 38.5t-69 14h-181v-483z" />
<glyph unicode="&#xdf;" horiz-adv-x="876" d="M143 57v1024q0 74 38 137.5t104 98.5t138.5 30.5t133.5 -44.5q55 -37 87 -96.5t32 -125.5q0 -16 -2 -26q-10 -92 -72 -158q70 -41 113 -110.5t43 -155.5v-328q0 -63 -24.5 -119.5t-65.5 -97.5t-97.5 -65.5t-119.5 -24.5q-27 0 -44.5 17.5t-17.5 43.5q0 27 17.5 44.5 t44.5 17.5q78 0 131 53t53 131v328q0 78 -53.5 131t-130.5 53q-23 0 -40.5 13.5t-21.5 35.5q-4 23 6.5 41.5t30.5 28.5l39 14q37 16 60.5 47t27.5 72t-13.5 76t-50.5 57q-35 23 -73.5 25t-73.5 -17q-35 -20 -55.5 -53t-20.5 -74v-1024q0 -27 -18.5 -44t-42.5 -17 q-27 0 -44.5 17t-17.5 44z" />
<glyph unicode="&#xe0;" horiz-adv-x="720" d="M61 270q0 55 20.5 103.5t57.5 85.5t85 57.5t104 20.5h143v139q0 43 -23.5 77.5t-62.5 51.5q-41 16 -82 8t-70 -39q-18 -18 -43.5 -18t-44.5 18q-18 18 -18 44t18 42q57 57 135 72.5t152 -14.5q74 -31 118 -96.5t44 -145.5v-610q0 -27 -18.5 -44.5t-43.5 -17.5h-204 q-55 0 -103.5 20.5t-85.5 57.5t-57.5 85t-20.5 103zM184 270q0 -59 42 -101t102 -42h143v287h-143q-59 0 -101.5 -42.5t-42.5 -101.5zM204 1283q-1 26 15 44t42 19.5t46 -15.5l205 -184q18 -16 19 -42t-15 -44t-41.5 -19.5t-44.5 15.5l-205 184q-20 16 -21 42z" />
<glyph unicode="&#xe1;" horiz-adv-x="720" d="M61 270q0 55 20.5 103.5t57.5 85.5t85 57.5t104 20.5h143v139q0 43 -23.5 77.5t-62.5 51.5q-41 16 -82 8t-70 -39q-18 -18 -43.5 -18t-44.5 18q-16 18 -16 44t16 42q57 57 135 72.5t152 -14.5q74 -31 118 -96.5t44 -145.5v-610q0 -27 -18.5 -44.5t-43.5 -17.5h-204 q-55 0 -103.5 20.5t-85.5 57.5t-57.5 85t-20.5 103zM184 270q0 -59 42 -101t102 -42h143v287h-143q-59 0 -101.5 -42.5t-42.5 -101.5zM204 1104.5q1 25.5 21 42.5l205 184q18 16 44 15.5t42 -19.5q16 -18 15 -44t-19 -42l-205 -184q-20 -16 -44.5 -15.5t-43.5 19.5 q-16 18 -15 43.5z" />
<glyph unicode="&#xe2;" horiz-adv-x="720" d="M61 270q0 55 20.5 103.5t57.5 85.5t85 57.5t104 20.5h143v139q0 43 -23.5 77.5t-62.5 51.5q-41 16 -82 8t-70 -39q-18 -18 -43.5 -18t-44.5 18q-16 18 -16 44t16 42q57 57 135 72.5t152 -14.5q74 -31 118 -96.5t44 -145.5v-610q0 -27 -18.5 -44.5t-43.5 -17.5h-204 q-55 0 -103.5 20.5t-85.5 57.5t-57.5 85t-20.5 103zM126 1109q3 24 21 38l185 143q37 27 71 0l185 -143q20 -14 23 -38t-13 -44q-14 -18 -37.5 -21.5t-44.5 11.5q-29 23 -55 45q-23 18 -49.5 37.5t-42.5 33.5q-18 -14 -44 -33.5t-49 -37.5q-27 -23 -57 -45 q-18 -14 -41.5 -11t-40.5 21q-14 20 -11 44zM184 270q0 -59 42 -101t102 -42h143v287h-143q-59 0 -101.5 -42.5t-42.5 -101.5z" />
<glyph unicode="&#xe3;" horiz-adv-x="720" d="M61 270q0 55 20.5 103.5t57.5 85.5t85 57.5t104 20.5h143v139q0 43 -23.5 77.5t-62.5 51.5q-41 16 -82 8t-70 -39q-18 -18 -43.5 -18t-44.5 18q-16 18 -16 44t16 42q57 57 135 72.5t152 -14.5q74 -31 118 -96.5t44 -145.5v-610q0 -27 -17.5 -44.5t-44.5 -17.5h-204 q-55 0 -103.5 20.5t-85.5 57.5t-57.5 85t-20.5 103zM127 1147.5q-4 23.5 8 44.5q45 66 121 78q78 12 139 -33l17 -12q23 -18 49 -13q27 2 43 29q14 20 37.5 24.5t44.5 -8.5q20 -14 24 -37.5t-8 -43.5q-45 -66 -121 -78q-78 -12 -139 32l-16 13q-23 16 -50 12q-27 -2 -43 -29 q-14 -20 -37.5 -24t-43.5 8q-21 14 -25 37.5zM184 270q0 -59 42 -101t102 -42h143v287h-143q-59 0 -101.5 -42.5t-42.5 -101.5z" />
<glyph unicode="&#xe4;" horiz-adv-x="720" d="M61 270q0 55 20.5 103.5t57.5 85.5t85 57.5t104 20.5h143v139q0 43 -23.5 77.5t-62.5 51.5q-41 16 -82 8t-70 -39q-18 -18 -43.5 -18t-44.5 18q-16 18 -16 44t16 42q57 57 135 72.5t152 -14.5q74 -31 118 -96.5t44 -145.5v-610q0 -27 -18.5 -44.5t-43.5 -17.5h-204 q-55 0 -103.5 20.5t-85.5 57.5t-57.5 85t-20.5 103zM123 1184q0 35 23.5 58.5t58.5 23.5t58.5 -23.5t23.5 -58.5t-23.5 -58.5t-58.5 -23.5t-58.5 23.5t-23.5 58.5zM184 270q0 -59 42 -101t102 -42h143v287h-143q-59 0 -101.5 -42.5t-42.5 -101.5zM451 1184q0 35 23.5 58.5 t57.5 23.5q35 0 58.5 -23.5t23.5 -58.5t-23.5 -58.5t-58.5 -23.5t-58 23.5t-23 58.5z" />
<glyph unicode="&#xe5;" horiz-adv-x="720" d="M61 270q0 55 20.5 103.5t57.5 85.5t85 57.5t104 20.5h143v139q0 43 -22.5 77.5t-63.5 51.5q-39 16 -81 8t-71 -39q-18 -18 -43.5 -18t-42.5 18q-18 18 -18 44t18 42q55 57 133 72.5t152 -14.5q74 -31 118 -96.5t44 -145.5v-610q0 -27 -17.5 -44.5t-44.5 -17.5h-204 q-55 0 -103.5 20.5t-85.5 57.5t-57.5 85t-20.5 103zM184 270q0 -59 42 -101t102 -42h143v287h-143q-59 0 -101.5 -42.5t-42.5 -101.5zM197 1204q0 72 50 122t122 50t122 -50t50 -122t-50.5 -122t-121.5 -50q-72 0 -122 50t-50 122zM295 1204q0 -31 21.5 -52.5t52.5 -21.5 t52 22t21 52q0 31 -21.5 52.5t-51.5 21.5q-31 0 -52.5 -21.5t-21.5 -52.5z" />
<glyph unicode="&#xe6;" horiz-adv-x="1107" d="M66.5 210q-15.5 79 17.5 155q31 74 97.5 118.5t148.5 44.5h143v144q0 43 -23.5 79.5t-64.5 53.5q-41 16 -84 8t-74 -41q-16 -16 -41.5 -16t-44.5 16q-18 18 -18 44t18 44q57 57 136 72.5t153 -14.5q63 -25 105 -76q37 45 90 70.5t114 25.5q55 0 103.5 -20.5t84.5 -57.5 t57.5 -85t21.5 -103v-205q0 -27 -18.5 -44t-43.5 -17h-348v-144q0 -43 23.5 -80t64.5 -53t83 -8t73 39q18 18 43.5 18t44.5 -18q16 -16 16 -42t-16 -44q-59 -57 -137 -72.5t-154 14.5q-61 25 -102 76q-41 -51 -105 -76q-74 -31 -152.5 -15.5t-136.5 73.5q-59 57 -74.5 136z M188.5 234.5q8.5 -41.5 38.5 -74.5q31 -31 74 -39t84 8t64.5 53t23.5 80v144h-143q-45 0 -81 -24t-52 -65q-17 -41 -8.5 -82.5zM596 528h287v144q0 59 -42 101t-102 42q-59 0 -101 -42t-42 -101v-144z" />
<glyph unicode="&#xe7;" horiz-adv-x="677" d="M119 262v410q0 82 45 148.5t119 97.5q76 31 154.5 15.5t135.5 -73.5q18 -18 18.5 -43.5t-18.5 -44.5q-18 -16 -43.5 -16t-42.5 16q-31 33 -73.5 41t-83.5 -8t-64.5 -53t-23.5 -80v-410q0 -43 23.5 -80t64.5 -53q31 -10 53 -10h2h2q55 0 100 41q16 18 42 18t44 -18 q18 -16 18.5 -42t-18.5 -44q-51 -51 -127 -72v-70q0 -59 -29.5 -112t-82.5 -84q-23 -12 -47.5 -6t-36.5 28q-12 23 -6 47.5t28 36.5q25 14 38.5 38t13.5 52v70q-23 6 -41 14q-74 31 -119 97.5t-45 148.5z" />
<glyph unicode="&#xe8;" horiz-adv-x="753" d="M119 262v410q0 55 21.5 103t57 85t84 57.5t103.5 20.5t103.5 -20.5t85 -57.5t57 -85t20.5 -103v-205q0 -27 -17.5 -44t-43.5 -17h-348v-144q0 -43 23.5 -80t64.5 -53t84 -8t73 39q16 18 42 18t44 -18q18 -16 18.5 -42t-18.5 -44q-57 -57 -136 -72.5t-154 14.5 q-74 31 -119 97.5t-45 148.5zM222 1283q-1 26 16 44q16 18 41.5 19.5t44.5 -15.5l204 -184q20 -16 21.5 -42t-17.5 -44q-16 -18 -41.5 -19.5t-44.5 15.5l-204 184q-19 16 -20 42zM242 528h286v144q0 59 -42 101t-101 42t-101 -42t-42 -101v-144z" />
<glyph unicode="&#xe9;" horiz-adv-x="753" d="M119 262v410q0 55 21.5 103t57 85t84 57.5t103.5 20.5t103.5 -20.5t85 -57.5t57 -85t20.5 -103v-205q0 -27 -17.5 -44t-43.5 -17h-348v-144q0 -43 23.5 -80t64.5 -53t84 -8t73 39q16 18 42 18t44 -18q18 -16 18.5 -42t-18.5 -44q-57 -57 -136 -72.5t-152 14.5 q-76 31 -121 97.5t-45 148.5zM222 1104.5q1 25.5 20 42.5l204 184q20 16 45 15.5t44 -19.5q16 -18 15 -44t-22 -42l-204 -184q-18 -16 -44 -15.5t-42 19.5q-17 18 -16 43.5zM242 528h286v144q0 59 -42 101t-101 42t-101 -42t-42 -101v-144z" />
<glyph unicode="&#xea;" horiz-adv-x="753" d="M119 262v410q0 55 21.5 103t57 85t84 57.5t103.5 20.5t103.5 -20.5t85 -57.5t57 -85t20.5 -103v-205q0 -27 -17.5 -44t-43.5 -17h-348v-144q0 -43 24.5 -80t65.5 -53t83 -8t72 39q18 18 44 18t42 -18q18 -16 18.5 -42t-18.5 -44q-57 -57 -136 -72.5t-152 14.5 q-76 31 -121 97.5t-45 148.5zM142 1109q3 24 24 38l184 143q16 12 36 12.5t36 -12.5l184 -143q18 -14 21.5 -38t-11.5 -44q-16 -18 -39.5 -21.5t-41.5 11.5q-31 23 -58 45q-23 18 -49.5 37.5t-42.5 33.5q-16 -14 -42 -33.5t-48 -37.5q-27 -23 -57 -45q-20 -14 -44 -11 t-38 21q-17 20 -14 44zM242 528h286v144q0 59 -42 101t-101 42t-101 -42t-42 -101v-144z" />
<glyph unicode="&#xeb;" horiz-adv-x="753" d="M119 262v410q0 55 21.5 103t57 85t84 57.5t103.5 20.5t103.5 -20.5t85 -57.5t57 -85t20.5 -103v-205q0 -27 -17.5 -44t-43.5 -17h-348v-144q0 -43 24.5 -80t65.5 -53t83 -8t72 39q18 18 44 18t42 -18q18 -16 18.5 -42t-18.5 -44q-57 -57 -136 -72.5t-152 14.5 q-76 31 -121 97.5t-45 148.5zM139 1184q0 35 23.5 58.5t58.5 23.5t58.5 -23.5t23.5 -58.5t-23.5 -58.5t-58.5 -23.5t-58.5 23.5t-23.5 58.5zM242 528h286v144q0 59 -42 101t-101 42t-101 -42t-42 -101v-144zM467 1184q0 35 23.5 58.5t58.5 23.5t58.5 -23.5t23.5 -58.5 t-23.5 -58.5t-58.5 -23.5t-58.5 23.5t-23.5 58.5z" />
<glyph unicode="&#xec;" horiz-adv-x="409" d="M1 1283q-1 26 15 44t42 19.5t46 -15.5l205 -184q18 -16 19.5 -42t-15.5 -44q-16 -18 -41.5 -19.5t-46.5 15.5l-205 184q-18 16 -19 42zM143 57v820q0 27 18.5 44t43.5 17q27 0 44 -17.5t17 -43.5v-820q0 -27 -17.5 -44t-43.5 -17q-25 0 -43.5 17t-18.5 44z" />
<glyph unicode="&#xed;" horiz-adv-x="409" d="M81 1104.5q1 25.5 21 42.5l205 184q18 16 44 15.5t42 -19.5q16 -18 15.5 -44t-19.5 -42l-205 -184q-20 -16 -45.5 -15.5t-42.5 19.5q-16 18 -15 43.5zM143 57v820q0 27 17.5 44t44.5 17q25 0 43 -17.5t18 -43.5v-820q0 -27 -18.5 -44t-42.5 -17q-27 0 -44.5 17t-17.5 44z " />
<glyph unicode="&#xee;" horiz-adv-x="409" d="M-37 1109q4 24 23 38l184 143q16 12 35.5 12.5t36.5 -12.5l184 -143q20 -14 23.5 -38t-13.5 -44q-16 -18 -38.5 -21.5t-43.5 11.5q-31 23 -57 45q-23 18 -48.5 37.5t-41.5 33.5q-18 -14 -44 -33.5t-48 -37.5q-27 -23 -58 -45q-18 -14 -41.5 -11t-40.5 21q-16 20 -12 44z M145 57v820q0 27 17.5 44t44.5 17q25 0 43 -17.5t18 -43.5v-820q0 -27 -18.5 -44t-42.5 -17q-27 0 -44.5 17t-17.5 44z" />
<glyph unicode="&#xef;" horiz-adv-x="409" d="M-41 1184q0 35 23.5 58.5t58.5 23.5t58.5 -23.5t23.5 -58.5t-23.5 -58.5t-58.5 -23.5t-58.5 23.5t-23.5 58.5zM143 57v820q0 27 17.5 44t44.5 17q25 0 43 -17.5t18 -43.5v-820q0 -27 -18.5 -44t-42.5 -17q-27 0 -44.5 17t-17.5 44zM287 1184q0 35 23.5 58.5t58.5 23.5 t58.5 -23.5t23.5 -58.5t-24 -58.5t-58 -23.5q-35 0 -58.5 23.5t-23.5 58.5z" />
<glyph unicode="&#xf0;" horiz-adv-x="770" d="M119 262v410q0 55 20.5 103t57 85t85 57.5t103.5 20.5q53 0 96 -18q-37 92 -98 172l-88 -60q-20 -12 -44 -8t-38 25q-12 20 -8 43.5t24 37.5l72 48q-16 16 -35.5 29.5t-40.5 27.5q-20 14 -25 38.5t9 47.5q14 20 38.5 25.5t47.5 -9.5q55 -37 111 -90l69 47q20 12 44 8 t38 -24t9 -44t-25 -38l-56 -37q20 -27 38 -54.5t34 -55.5q94 -176 94 -377v-410q0 -55 -20.5 -103t-57 -85t-85 -57.5t-103.5 -20.5t-103.5 20.5t-85 57.5t-57 85t-20.5 103zM242 262q0 -59 42 -101t101 -42t101 42t42 101v410q0 59 -42 101t-101 42t-101 -42t-42 -101v-410 z" />
<glyph unicode="&#xf1;" horiz-adv-x="802" d="M143 57v811q0 27 17.5 44.5t44.5 17.5h205q55 0 103 -20.5t84 -57.5t57.5 -85t21.5 -103v-607q0 -27 -18.5 -44t-43.5 -17q-27 0 -44 17.5t-17 43.5v607q0 59 -42 101t-101 42h-144v-750q0 -27 -18.5 -44t-42.5 -17q-27 0 -44.5 17t-17.5 44zM167 1147.5q-5 23.5 9 44.5 q43 66 121 78q74 12 139 -33l17 -12q20 -18 49 -13q27 2 43 29q14 20 36.5 24.5t45.5 -8.5q20 -14 24 -37.5t-8 -43.5q-45 -66 -121 -78q-78 -12 -139 32l-16 13q-23 16 -52 12t-41 -29q-14 -20 -37.5 -24t-43.5 8q-21 14 -26 37.5z" />
<glyph unicode="&#xf2;" horiz-adv-x="770" d="M119 262v410q0 55 20.5 103t57 85t85 57.5t103.5 20.5t103.5 -20.5t85 -57.5t57 -85t20.5 -103v-410q0 -55 -20.5 -103t-57 -85t-85 -57.5t-103.5 -20.5t-103.5 20.5t-85 57.5t-57 85t-20.5 103zM220 1283q-1 26 18 44q16 18 41.5 19.5t44.5 -15.5l204 -184 q18 -16 19.5 -42t-15.5 -44q-16 -18 -41.5 -19.5t-44.5 15.5l-204 184q-21 16 -22 42zM242 262q0 -59 42 -101t101 -42t101 42t42 101v410q0 59 -42 101t-101 42t-101 -42t-42 -101v-410z" />
<glyph unicode="&#xf3;" horiz-adv-x="770" d="M119 262v410q0 55 20.5 103t57 85t85 57.5t103.5 20.5t103.5 -20.5t85 -57.5t57 -85t20.5 -103v-410q0 -55 -20.5 -103t-57 -85t-85 -57.5t-103.5 -20.5t-103.5 20.5t-85 57.5t-57 85t-20.5 103zM222 1104.5q1 25.5 20 42.5l204 184q18 16 44 15.5t42 -19.5 q16 -18 15.5 -44t-19.5 -42l-204 -184q-18 -16 -44 -15.5t-42 19.5q-17 18 -16 43.5zM242 262q0 -59 42 -101t101 -42t101 42t42 101v410q0 59 -42 101t-101 42t-101 -42t-42 -101v-410z" />
<glyph unicode="&#xf4;" horiz-adv-x="770" d="M119 262v410q0 55 20.5 103t57 85t85 57.5t103.5 20.5t103.5 -20.5t85 -57.5t57 -85t20.5 -103v-410q0 -55 -20.5 -103t-57 -85t-85 -57.5t-103.5 -20.5t-103.5 20.5t-85 57.5t-57 85t-20.5 103zM142 1109q3 24 22 38l184 143q37 27 72 0l184 -143q20 -14 23.5 -38 t-13.5 -44q-14 -18 -37.5 -21.5t-44.5 11.5q-29 23 -55 45q-23 18 -49.5 37.5t-42.5 33.5q-18 -14 -44 -33.5t-48 -37.5q-27 -23 -57 -45q-18 -14 -42 -11t-40 21q-15 20 -12 44zM242 262q0 -59 42 -101t101 -42t101 42t42 101v410q0 59 -42 101t-101 42t-101 -42t-42 -101 v-410z" />
<glyph unicode="&#xf5;" horiz-adv-x="770" d="M119 262v410q0 55 20.5 103t57 85t85 57.5t103.5 20.5t103.5 -20.5t85 -57.5t57 -85t20.5 -103v-410q0 -55 -20.5 -103t-57 -85t-85 -57.5t-103.5 -20.5t-103.5 20.5t-85 57.5t-57 85t-20.5 103zM143 1147.5q-4 23.5 9 44.5q45 66 120 78q78 12 140 -33l16 -12 q23 -18 49 -13q31 4 43 29q14 20 38 24.5t44 -8.5q20 -14 25.5 -37.5t-9.5 -43.5q-45 -66 -120 -78q-78 -12 -140 32l-16 13q-23 16 -49 12q-27 -2 -43 -29q-14 -20 -38 -24t-44 8q-21 14 -25 37.5zM242 262q0 -59 42 -101t101 -42t101 42t42 101v410q0 59 -42 101t-101 42 t-101 -42t-42 -101v-410z" />
<glyph unicode="&#xf6;" horiz-adv-x="770" d="M119 262v410q0 55 20.5 103t57 85t85 57.5t103.5 20.5t103.5 -20.5t85 -57.5t57 -85t20.5 -103v-410q0 -55 -20.5 -103t-57 -85t-85 -57.5t-103.5 -20.5t-103.5 20.5t-85 57.5t-57 85t-20.5 103zM139 1184q0 35 23.5 58.5t58.5 23.5t58.5 -23.5t23.5 -58.5t-23.5 -58.5 t-58.5 -23.5t-58.5 23.5t-23.5 58.5zM242 262q0 -59 42 -101t101 -42t101 42t42 101v410q0 59 -42 101t-101 42t-101 -42t-42 -101v-410zM467 1184q0 35 23.5 58.5t58.5 23.5t58.5 -23.5t23.5 -58.5t-23.5 -58.5t-58.5 -23.5t-58.5 23.5t-23.5 58.5z" />
<glyph unicode="&#xf7;" d="M115 590q0 29 18.5 47t46.5 18h492q27 0 46 -18.5t19 -46.5q0 -29 -19.5 -47.5t-45.5 -18.5h-492q-29 0 -47 18.5t-18 47.5zM340 324q0 35 24.5 60.5t61.5 25.5q35 0 60.5 -26t25.5 -60q0 -35 -25.5 -60.5t-60.5 -25.5q-37 0 -61.5 25.5t-24.5 60.5zM340 856 q0 35 24.5 60.5t61.5 25.5q35 0 60.5 -25.5t25.5 -60.5t-25.5 -60.5t-60.5 -25.5q-37 0 -61.5 25.5t-24.5 60.5z" />
<glyph unicode="&#xf8;" horiz-adv-x="790" d="M51 -39.5q-6 23.5 6 43.5l93 156q-20 47 -21 102v410q0 55 20.5 103t57.5 85t85 57.5t103 20.5q98 0 170 -61l66 110q12 23 35.5 28t44.5 -5q23 -12 27.5 -36t-5.5 -44l-92 -158q20 -51 21 -100v-410q0 -55 -20.5 -103t-57.5 -85t-85 -57.5t-104 -20.5q-98 0 -170 61 l-65 -110q-12 -23 -36 -29t-44 6q-23 13 -29 36.5zM252 338l250 428q-43 49 -107 49q-59 0 -101 -42t-42 -101v-334zM289 168q39 -49 106 -49q59 0 101.5 42t42.5 101v334z" />
<glyph unicode="&#xf9;" horiz-adv-x="802" d="M127 270v607q0 27 18.5 44t42.5 17q27 0 44.5 -17.5t17.5 -43.5v-607q0 -59 42 -101t101 -42h144v750q0 27 18 44t43 17q27 0 44 -17.5t17 -43.5v-811q0 -27 -17 -44.5t-44 -17.5h-205q-55 0 -103 20.5t-84 57.5t-57.5 85t-21.5 103zM230 1283q-1 26 16 44 q16 18 41.5 19.5t44.5 -15.5l205 -184q20 -16 21 -42t-15 -44q-18 -18 -43 -19.5t-45 15.5l-205 184q-19 16 -20 42z" />
<glyph unicode="&#xfa;" horiz-adv-x="802" d="M127 270v607q0 27 18.5 44t42.5 17q27 0 44.5 -17.5t17.5 -43.5v-607q0 -59 42 -101t101 -42h144v750q0 27 18 44t43 17q27 0 44 -17.5t17 -43.5v-811q0 -27 -17 -44.5t-44 -17.5h-205q-55 0 -103 20.5t-84 57.5t-57.5 85t-21.5 103zM230 1104.5q1 25.5 20 42.5l205 184 q20 16 45.5 15.5t42.5 -19.5q16 -18 15 -44t-21 -42l-205 -184q-18 -16 -44 -15.5t-42 19.5q-17 18 -16 43.5z" />
<glyph unicode="&#xfb;" horiz-adv-x="802" d="M127 270v607q0 27 18.5 44t42.5 17q27 0 44.5 -17.5t17.5 -43.5v-607q0 -59 42 -101t101 -42h144v750q0 27 18 44t43 17q27 0 44 -17.5t17 -43.5v-811q0 -27 -17 -44.5t-44 -17.5h-205q-55 0 -103 20.5t-84 57.5t-57.5 85t-21.5 103zM151.5 1109q4.5 24 22.5 38l184 143 q16 12 36 12.5t36 -12.5l184 -143q18 -14 22.5 -38t-11.5 -44q-16 -18 -40 -21.5t-42 11.5q-31 23 -58 45q-23 18 -49 37.5t-43 33.5q-16 -14 -41.5 -33.5t-48.5 -37.5q-27 -23 -57 -45q-20 -14 -43 -11t-39 21q-17 20 -12.5 44z" />
<glyph unicode="&#xfc;" horiz-adv-x="802" d="M127 270v607q0 27 18.5 44t42.5 17q27 0 44.5 -17.5t17.5 -43.5v-607q0 -59 42 -101t101 -42h144v750q0 27 18 44t43 17q27 0 44 -17.5t17 -43.5v-811q0 -27 -17 -44.5t-44 -17.5h-205q-55 0 -103 20.5t-84 57.5t-57.5 85t-21.5 103zM147 1184q0 35 24 58.5t58 23.5 q35 0 58.5 -23.5t23.5 -58.5t-23.5 -58.5t-58.5 -23.5t-58.5 23.5t-23.5 58.5zM475 1184q0 35 23.5 58.5t58.5 23.5t58.5 -23.5t23.5 -58.5t-23.5 -58.5t-58.5 -23.5t-58.5 23.5t-23.5 58.5z" />
<glyph unicode="&#xfd;" horiz-adv-x="755" d="M41 -352q0 27 18.5 44t42.5 17q47 0 85 27.5t53 75.5l73 245l-239 801q-8 25 4 47.5t37 30.5q25 6 47 -6t28 -35l189 -625l186 625q8 23 29.5 35t46.5 6q25 -8 37 -30.5t4 -47.5l-246 -819l-78 -262q-25 -86 -96 -137q-72 -53 -160 -54q-25 0 -43 17.5t-18 44.5z M214 1104.5q1 25.5 19 42.5l205 184q20 16 46 15.5t42 -19.5q16 -18 15.5 -44t-19.5 -42l-205 -184q-20 -16 -45.5 -15.5t-42.5 19.5q-16 18 -15 43.5z" />
<glyph unicode="&#xfe;" horiz-adv-x="794" d="M143 -352v1638q0 27 17.5 44.5t44.5 17.5t44 -17.5t17 -44.5v-348h144q55 0 103 -20.5t85 -57.5t57.5 -85t20.5 -103v-410q0 -55 -20.5 -103t-57.5 -85t-85 -57.5t-103 -20.5h-144v-348q0 -27 -17.5 -44.5t-43.5 -17.5q-27 0 -44.5 17.5t-17.5 44.5zM266 119h144 q59 0 101 42t42 101v410q0 59 -42 101t-101 42h-144v-696z" />
<glyph unicode="&#xff;" horiz-adv-x="755" d="M41 -352q0 27 18.5 44t42.5 17q47 0 85 27.5t53 75.5l73 245l-239 801q-8 25 4 47.5t37 30.5q25 6 47 -6t28 -35l189 -625l186 625q8 23 29.5 35t46.5 6q25 -8 37 -30.5t4 -47.5l-246 -819l-78 -262q-25 -86 -96 -137q-72 -53 -160 -54q-25 0 -43 17.5t-18 44.5z M133 1184q0 35 23.5 58.5t58.5 23.5t58.5 -23.5t23.5 -58.5t-23.5 -58.5t-58.5 -23.5t-58.5 23.5t-23.5 58.5zM461 1184q0 35 23.5 58.5t58.5 23.5t58.5 -23.5t23.5 -58.5t-23.5 -58.5t-58.5 -23.5t-58.5 23.5t-23.5 58.5z" />
<glyph unicode="&#x152;" horiz-adv-x="1220" d="M115 303v696q0 63 24.5 121t66.5 100t98 66.5t122 24.5q51 0 97 -15.5t85 -44.5q4 23 22.5 37.5t41.5 14.5h409q27 0 46.5 -18.5t19.5 -47.5t-19.5 -47.5t-46.5 -18.5h-344v-213v-221h303q27 0 46.5 -18.5t19.5 -46.5q0 -29 -19.5 -47.5t-46.5 -18.5h-303v-262v-213h344 q27 0 46.5 -18.5t19.5 -46.5q0 -29 -19.5 -47.5t-46.5 -18.5h-409q-23 0 -41.5 14.5t-22.5 36.5q-39 -29 -85 -44t-97 -15q-66 0 -122 24.5t-98 66.5t-66.5 98t-24.5 122zM246 303q0 -76 52 -128t128 -52q74 0 127 52t53 128v41v614v41q0 37 -14 70t-39 57.5t-57.5 39 t-69.5 14.5q-76 0 -128 -53.5t-52 -127.5v-696z" />
<glyph unicode="&#x153;" horiz-adv-x="1163" d="M119 262v410q0 55 20.5 103t57 85t85 57.5t103.5 20.5q61 0 114.5 -25.5t90.5 -70.5q37 45 90 70.5t115 25.5q55 0 103 -20.5t84 -57.5t57.5 -85t21.5 -103v-205q0 -27 -18.5 -44t-43.5 -17h-348v-144q0 -43 23.5 -80t64.5 -53t83 -8t73 39q18 18 44 18t44 -18 q16 -16 16 -42t-16 -44q-59 -57 -137 -72.5t-154 14.5q-61 25 -102 76q-37 -45 -90.5 -70.5t-114.5 -25.5q-55 0 -103.5 20.5t-85 57.5t-57 85t-20.5 103zM242 262q0 -59 42 -101t101 -42t101 42t42 101v410q0 59 -42 101t-101 42t-101 -42t-42 -101v-410zM651 528h287v144 q0 59 -42 101t-101 42t-101.5 -42t-42.5 -101v-144z" />
<glyph unicode="&#x178;" horiz-adv-x="823" d="M61.5 1265.5q8.5 26.5 32.5 39.5q25 10 50.5 1.5t37.5 -32.5l228 -455q29 55 68.5 133t74.5 150l86 172q12 25 37.5 33t50.5 -2q23 -12 32 -39t-3 -49l-281 -562v-598q0 -29 -18.5 -47t-46.5 -18q-27 0 -46.5 18.5t-19.5 46.5v598l-278 562q-13 22 -4.5 48.5zM160 1593 q0 35 25.5 60.5t60.5 25.5q37 0 61.5 -25.5t24.5 -60.5t-24.5 -60.5t-61.5 -25.5q-35 0 -60.5 25.5t-25.5 60.5zM487 1593q0 35 26 60.5t60 25.5q37 0 61.5 -25.5t24.5 -60.5t-24.5 -60.5t-61.5 -25.5q-35 0 -60.5 25.5t-25.5 60.5z" />
<glyph unicode="&#x2c6;" horiz-adv-x="1024" d="M263 1110q3 27 26 43l184 143q16 14 39 14.5t41 -14.5l184 -143q23 -16 26 -43t-13 -49q-16 -23 -43 -25t-50 15q-29 20 -55 41q-23 16 -47.5 35.5t-42.5 33.5q-18 -14 -43 -33.5t-47 -35.5l-53 -41q-23 -16 -49.5 -14.5t-43.5 24.5q-16 22 -13 49z" />
<glyph unicode="&#x2dc;" horiz-adv-x="1024" d="M263 1147q-5 27 9 49q23 33 55.5 53.5t69.5 28.5q82 12 146 -35l16 -12q20 -14 45 -12q25 6 37 24q16 23 43 29t49 -10q23 -14 29 -41t-10 -50q-43 -66 -125 -81q-82 -12 -146 34l-16 13q-18 16 -45 12q-27 -8 -37 -27q-16 -23 -43 -27.5t-49 9.5q-23 16 -28 43z" />
<glyph unicode="&#x2000;" horiz-adv-x="892" />
<glyph unicode="&#x2001;" horiz-adv-x="1787" />
<glyph unicode="&#x2002;" horiz-adv-x="892" />
<glyph unicode="&#x2003;" horiz-adv-x="1787" />
<glyph unicode="&#x2004;" horiz-adv-x="595" />
<glyph unicode="&#x2005;" horiz-adv-x="446" />
<glyph unicode="&#x2006;" horiz-adv-x="296" />
<glyph unicode="&#x2007;" horiz-adv-x="296" />
<glyph unicode="&#x2008;" horiz-adv-x="223" />
<glyph unicode="&#x2009;" horiz-adv-x="356" />
<glyph unicode="&#x200a;" horiz-adv-x="98" />
<glyph unicode="&#x2010;" d="M115 590q0 29 18.5 47t46.5 18h492q27 0 46 -18.5t19 -46.5q0 -29 -19.5 -47.5t-45.5 -18.5h-492q-29 0 -47 18.5t-18 47.5z" />
<glyph unicode="&#x2011;" d="M115 590q0 29 18.5 47t46.5 18h492q27 0 46 -18.5t19 -46.5q0 -29 -19.5 -47.5t-45.5 -18.5h-492q-29 0 -47 18.5t-18 47.5z" />
<glyph unicode="&#x2012;" d="M115 590q0 29 18.5 47t46.5 18h492q27 0 46 -18.5t19 -46.5q0 -29 -19.5 -47.5t-45.5 -18.5h-492q-29 0 -47 18.5t-18 47.5z" />
<glyph unicode="&#x2013;" horiz-adv-x="1024" d="M-66 590q0 29 19.5 47t46.5 18h1024q29 0 47.5 -18.5t18.5 -46.5q0 -29 -18.5 -47.5t-47.5 -18.5h-1024q-27 0 -46.5 18.5t-19.5 47.5z" />
<glyph unicode="&#x2014;" horiz-adv-x="2048" d="M-66 590q0 29 19.5 47t46.5 18h2048q29 0 47.5 -18.5t18.5 -46.5q0 -29 -18.5 -47.5t-47.5 -18.5h-2048q-27 0 -46.5 18.5t-19.5 47.5z" />
<glyph unicode="&#x2018;" horiz-adv-x="393" d="M100 1049v98q0 51 29 93t76 63q23 10 47 -0.5t35 -32.5q10 -25 -0.5 -48.5t-34.5 -33.5q-27 -14 -27 -41v-37h4q25 0 43.5 -17.5t18.5 -43.5q0 -27 -18.5 -45.5t-43.5 -18.5h-65q-27 0 -45.5 18.5t-18.5 45.5z" />
<glyph unicode="&#x2019;" horiz-adv-x="393" d="M100 1237q0 27 18.5 44t45.5 17h65q25 0 43.5 -17t18.5 -44v-98q0 -51 -29 -93t-76 -63q-23 -10 -47 0t-35 33q-10 25 0.5 48t34.5 34q27 10 27 41v35h-2q-27 0 -45.5 18t-18.5 45z" />
<glyph unicode="&#x201a;" horiz-adv-x="391" d="M100 98q0 27 18.5 44.5t45.5 17.5h65q25 0 43.5 -17.5t18.5 -44.5v-98q0 -51 -29 -93t-76 -63q-23 -10 -47 0.5t-35 32.5q-10 25 0.5 48.5t34.5 33.5q27 10 27 41v35h-2q-27 0 -45.5 18t-18.5 45z" />
<glyph unicode="&#x201c;" horiz-adv-x="759" d="M100 1049v98q0 51 28 93t75 63q25 10 48 -0.5t34 -32.5q10 -25 -0.5 -48.5t-32.5 -33.5q-27 -14 -27 -41v-37h2q27 0 45.5 -17.5t18.5 -43.5q0 -27 -18.5 -45.5t-45.5 -18.5h-65q-27 0 -44.5 18.5t-17.5 45.5zM469 1049v98q0 51 27.5 93t74.5 63q25 10 48.5 -0.5 t33.5 -32.5q10 -25 0 -48.5t-32 -33.5q-27 -14 -27 -41v-37h2q27 0 45 -17.5t18 -43.5q0 -27 -18 -45.5t-45 -18.5h-66q-27 0 -44 18.5t-17 45.5z" />
<glyph unicode="&#x201d;" horiz-adv-x="761" d="M102 1237q0 27 17.5 44t44.5 17h65q27 0 45.5 -17t18.5 -44v-98q0 -51 -28.5 -93t-76.5 -63q-25 -10 -48 0t-34 33q-10 25 0.5 48t32.5 34q29 10 29 41v35h-4q-27 0 -44.5 18t-17.5 45zM471 1237q0 27 17.5 44t43.5 17h66q27 0 45.5 -17t18.5 -44v-98q0 -51 -29 -93 t-76 -63q-25 -10 -48.5 0t-33.5 33q-10 25 0 48t33 34q29 10 29 41v35h-5q-27 0 -44 18t-17 45z" />
<glyph unicode="&#x201e;" horiz-adv-x="761" d="M100 98q0 27 18.5 44.5t45.5 17.5h65q27 0 44.5 -17.5t17.5 -44.5v-98q0 -51 -27.5 -93t-75.5 -63q-25 -10 -48 0.5t-34 32.5q-10 25 0.5 48.5t32.5 33.5q27 10 27 41v35h-2q-27 0 -45.5 18t-18.5 45zM469 98q0 27 18.5 44.5t44.5 17.5h66q27 0 44 -17.5t17 -44.5v-98 q0 -51 -27.5 -93t-74.5 -63q-25 -10 -48.5 0.5t-33.5 32.5q-10 25 0 48.5t33 33.5q27 10 27 41v35h-3q-27 0 -45 18t-18 45z" />
<glyph unicode="&#x2022;" horiz-adv-x="524" d="M61 578q0 41 15.5 77.5t43 64.5t64.5 44t78 16q43 0 80 -16t64.5 -44t43 -65t15.5 -77q0 -86 -58.5 -144.5t-144.5 -58.5q-84 0 -142.5 58.5t-58.5 144.5zM178 578q0 -35 24.5 -59.5t59.5 -24.5t60.5 24.5t25.5 59.5t-25.5 59.5t-60.5 24.5t-59.5 -24.5t-24.5 -59.5z" />
<glyph unicode="&#x2026;" horiz-adv-x="1179" d="M94 78q0 35 25.5 60.5t60.5 25.5q37 0 61.5 -25.5t24.5 -60.5t-24.5 -60.5t-61.5 -25.5q-35 0 -60.5 25.5t-25.5 60.5zM504 78q0 35 25.5 60.5t60.5 25.5q37 0 61.5 -25.5t24.5 -60.5t-24.5 -60.5t-61.5 -25.5q-35 0 -60.5 25.5t-25.5 60.5zM913 78q0 35 26 60.5t60 25.5 q37 0 61.5 -25.5t24.5 -60.5t-24.5 -60.5t-61.5 -25.5q-35 0 -60.5 25.5t-25.5 60.5z" />
<glyph unicode="&#x202f;" horiz-adv-x="356" />
<glyph unicode="&#x2039;" horiz-adv-x="489" d="M106 565q-16 31 0 64l132 237q14 25 39.5 33t50.5 -6q33 -20 32 -57q0 -20 -8 -31q-25 -47 -47 -86l-37 -70q-18 -35 -28 -51q10 -18 29.5 -56t39.5 -75q23 -43 51 -92q8 -14 9 -31q0 -37 -33 -57q-25 -14 -50.5 -6t-39.5 32z" />
<glyph unicode="&#x203a;" horiz-adv-x="489" d="M121 344q0 10 8 31q29 49 51 92q20 37 41 75t31 56q-10 16 -29.5 51t-38.5 70q-23 39 -47 86q-8 16 -8 31q0 39 35 57q23 14 49.5 6t38.5 -33l131 -237q18 -33 0 -64l-139 -252q-12 -25 -39 -33t-49 7q-35 18 -35 57z" />
<glyph unicode="&#x205f;" horiz-adv-x="446" />
<glyph unicode="&#x20ac;" d="M37 487q0 29 18.5 47.5t46.5 18.5h99v197h-99q-29 0 -47 18t-18 47t18.5 47.5t46.5 18.5h99v118q0 106 63.5 189.5t165.5 111.5q104 29 200.5 -12t149.5 -133l21 -35q14 -25 7 -50.5t-30 -39.5q-25 -14 -50.5 -7t-39.5 32l-20 35q-31 53 -87.5 76.5t-115.5 7.5t-96 -64.5 t-37 -110.5v-118h262q27 0 46 -18.5t19 -47.5t-19 -47t-46 -18h-262v-197h180q27 0 46.5 -18.5t19.5 -47.5t-19.5 -47t-46.5 -18h-180v-119q0 -61 37 -109.5t96 -64.5t115.5 7.5t87.5 76.5l20 35q14 25 40 32t50 -8q23 -14 30 -39.5t-7 -50.5l-21 -35q-53 -92 -149 -133 t-201 -12q-102 29 -165.5 112t-63.5 189v119h-99q-29 0 -47 18t-18 47z" />
<glyph unicode="&#x2122;" horiz-adv-x="1372" d="M55 1237q0 27 17.5 44t44.5 17h409q27 0 45.5 -17t18.5 -44t-18.5 -45t-45.5 -18h-141v-543q0 -27 -18.5 -45.5t-44.5 -18.5q-27 0 -44.5 18.5t-17.5 45.5v543h-143q-27 0 -44.5 18t-17.5 45zM711 631v614q0 20 11 36.5t32 23.5q41 12 69 -23q29 -41 56 -78 q23 -35 49 -71.5t49 -67.5q23 31 49.5 67.5t48.5 71.5q27 37 55 78q29 35 72 23q18 -6 30.5 -22.5t12.5 -37.5v-614q0 -27 -18.5 -45.5t-44.5 -18.5q-27 0 -44.5 18.5t-17.5 45.5v420q-16 -25 -33.5 -47.5t-29.5 -40.5q-16 -23 -29 -41q-20 -27 -51 -27t-51 27 q-14 18 -29 41q-12 18 -28.5 40.5t-32.5 47.5v-420q0 -27 -18.5 -45.5t-45.5 -18.5t-44 18.5t-17 45.5z" />
<glyph unicode="&#xe000;" horiz-adv-x="940" d="M0 940h940v-940h-940v940z" />
<glyph unicode="&#xfb01;" horiz-adv-x="1015" d="M729 1184q0 35 23.5 58.5t58.5 23.5t58.5 -23.5t23.5 -58.5t-23.5 -58.5t-58.5 -23.5t-58.5 23.5t-23.5 58.5zM749 57v820q0 27 18.5 44t43.5 17q27 0 44 -17.5t17 -43.5v-820q0 -27 -17.5 -44t-43.5 -17q-25 0 -43.5 17t-18.5 44zM53 868q0 27 17.5 44.5t44.5 17.5h102 v151q0 55 20.5 103.5t57.5 85.5t85 57.5t103 20.5q27 0 44.5 -17.5t17.5 -44.5t-17.5 -44t-44.5 -17q-59 0 -101 -42t-42 -102v-151h143q27 0 44.5 -17.5t17.5 -44.5t-17.5 -44t-44.5 -17h-143v-750q0 -27 -17.5 -44t-43.5 -17q-27 0 -44.5 17.5t-17.5 43.5v750h-102 q-27 0 -44.5 17t-17.5 44z" />
<glyph unicode="&#xfb02;" horiz-adv-x="1015" d="M743 199v1087q0 27 18.5 44.5t43.5 17.5q27 0 44 -17.5t17 -44.5v-1087q0 -29 14.5 -51.5t36.5 -36.5q23 -12 30 -37q2 -8 2 -16q0 -16 -9 -31q-12 -23 -37 -29q-8 -2 -16 -2q-16 0 -31 8q-51 31 -82 83.5t-31 111.5zM53 868q0 27 17.5 44.5t44.5 17.5h102v151 q0 55 20.5 103.5t57.5 85.5t85 57.5t103 20.5q27 0 44.5 -17.5t17.5 -44.5t-17.5 -44t-44.5 -17q-59 0 -101 -42t-42 -102v-151h143q27 0 44.5 -17.5t17.5 -44.5t-17.5 -44t-44.5 -17h-143v-750q0 -27 -17.5 -44t-43.5 -17q-27 0 -44.5 17.5t-17.5 43.5v750h-102 q-27 0 -44.5 17t-17.5 44z" />
<glyph unicode="&#xfb03;" horiz-adv-x="1622" d="M1335 1184q0 35 23.5 58.5t58.5 23.5t58.5 -23.5t23.5 -58.5t-23.5 -58.5t-58.5 -23.5t-58.5 23.5t-23.5 58.5zM1355 57v820q0 27 18.5 44t43.5 17q27 0 44 -17.5t17 -43.5v-820q0 -27 -17.5 -44t-43.5 -17q-25 0 -43.5 17t-18.5 44zM659 868q0 27 17.5 44.5t44.5 17.5 h102v151q0 55 20.5 103.5t57.5 85.5t85 57.5t103 20.5q27 0 44.5 -17.5t17.5 -44.5t-17.5 -44t-44.5 -17q-59 0 -101 -42t-42 -102v-151h143q27 0 44.5 -17.5t17.5 -44.5t-17.5 -44t-44.5 -17h-143v-750q0 -27 -17.5 -44t-43.5 -17q-27 0 -44.5 17.5t-17.5 43.5v750h-102 q-27 0 -44.5 17t-17.5 44zM53 868q0 27 17.5 44.5t44.5 17.5h102v151q0 55 20.5 103.5t57.5 85.5t85 57.5t103 20.5q27 0 44.5 -17.5t17.5 -44.5t-17.5 -44t-44.5 -17q-59 0 -101 -42t-42 -102v-151h143q27 0 44.5 -17.5t17.5 -44.5t-17.5 -44t-44.5 -17h-143v-750 q0 -27 -17.5 -44t-43.5 -17q-27 0 -44.5 17.5t-17.5 43.5v750h-102q-27 0 -44.5 17t-17.5 44z" />
<glyph unicode="&#xfb04;" horiz-adv-x="1622" d="M1349 199v1087q0 27 18.5 44.5t43.5 17.5q27 0 44 -17.5t17 -44.5v-1087q0 -29 14.5 -51.5t36.5 -36.5q23 -12 30 -37q2 -8 2 -16q0 -16 -9 -31q-12 -23 -37 -29q-8 -2 -16 -2q-16 0 -31 8q-51 31 -82 83.5t-31 111.5zM659 868q0 27 17.5 44.5t44.5 17.5h102v151 q0 55 20.5 103.5t57.5 85.5t85 57.5t103 20.5q27 0 44.5 -17.5t17.5 -44.5t-17.5 -44t-44.5 -17q-59 0 -101 -42t-42 -102v-151h143q27 0 44.5 -17.5t17.5 -44.5t-17.5 -44t-44.5 -17h-143v-750q0 -27 -17.5 -44t-43.5 -17q-27 0 -44.5 17.5t-17.5 43.5v750h-102 q-27 0 -44.5 17t-17.5 44zM53 868q0 27 17.5 44.5t44.5 17.5h102v151q0 55 20.5 103.5t57.5 85.5t85 57.5t103 20.5q27 0 44.5 -17.5t17.5 -44.5t-17.5 -44t-44.5 -17q-59 0 -101 -42t-42 -102v-151h143q27 0 44.5 -17.5t17.5 -44.5t-17.5 -44t-44.5 -17h-143v-750 q0 -27 -17.5 -44t-43.5 -17q-27 0 -44.5 17.5t-17.5 43.5v750h-102q-27 0 -44.5 17t-17.5 44z" />
</font>
</defs>
</svg>
